<mxfile host="app.diagrams.net" modified="2024-02-08T16:50:27.991Z" agent="Mozilla/5.0 (Windows NT 10.0; Win64; x64) AppleWebKit/537.36 (KHTML, like Gecko) Chrome/121.0.0.0 Safari/537.36" etag="K3yRe0WN9-arc0M6Iez3" version="23.1.1" type="google" pages="14">
  <diagram name="Halaman-1" id="1GKVLPF74q84LRxZKWzu">
    <mxGraphModel grid="1" page="1" gridSize="10" guides="1" tooltips="1" connect="1" arrows="1" fold="1" pageScale="1" pageWidth="850" pageHeight="1100" math="0" shadow="0">
      <root>
        <mxCell id="0" />
        <mxCell id="1" parent="0" />
        <mxCell id="kvFEr8Y-bFAWC6JD1_fZ-1" value="Purchase Order" style="swimlane;childLayout=stackLayout;horizontal=1;startSize=50;horizontalStack=0;rounded=1;fontSize=14;fontStyle=0;strokeWidth=2;resizeParent=0;resizeLast=1;shadow=0;dashed=0;align=center;arcSize=4;whiteSpace=wrap;html=1;" vertex="1" parent="1">
          <mxGeometry x="410" y="190" width="160" height="210" as="geometry">
            <mxRectangle x="270" y="110" width="80" height="50" as="alternateBounds" />
          </mxGeometry>
        </mxCell>
        <mxCell id="kvFEr8Y-bFAWC6JD1_fZ-2" value="# ID_Project&lt;br&gt;+ No_PO&lt;br&gt;+ Tanggal PO&lt;br&gt;+ Nama_project&lt;br&gt;+ ID_Perusahaan&lt;br&gt;+ Start_Date&lt;br&gt;+Complasion_Date&lt;br&gt;+Deadline&lt;br&gt;# ID_Vendor&lt;br&gt;+ status" style="align=left;strokeColor=none;fillColor=none;spacingLeft=4;fontSize=12;verticalAlign=top;resizable=0;rotatable=0;part=1;html=1;" vertex="1" parent="kvFEr8Y-bFAWC6JD1_fZ-1">
          <mxGeometry y="50" width="160" height="160" as="geometry" />
        </mxCell>
        <mxCell id="kvFEr8Y-bFAWC6JD1_fZ-3" value="client" style="swimlane;childLayout=stackLayout;horizontal=1;startSize=50;horizontalStack=0;rounded=1;fontSize=14;fontStyle=0;strokeWidth=2;resizeParent=0;resizeLast=1;shadow=0;dashed=0;align=center;arcSize=4;whiteSpace=wrap;html=1;" vertex="1" parent="1">
          <mxGeometry x="710" y="150" width="160" height="140" as="geometry">
            <mxRectangle x="710" y="150" width="120" height="50" as="alternateBounds" />
          </mxGeometry>
        </mxCell>
        <mxCell id="kvFEr8Y-bFAWC6JD1_fZ-4" value="# ID_Perusahaan&lt;br&gt;+Nama_Perusahaan&lt;br&gt;+Jenis_Perusahaan&lt;br&gt;+ Alamat&lt;br&gt;+ kontak" style="align=left;strokeColor=none;fillColor=none;spacingLeft=4;fontSize=12;verticalAlign=top;resizable=0;rotatable=0;part=1;html=1;" vertex="1" parent="kvFEr8Y-bFAWC6JD1_fZ-3">
          <mxGeometry y="50" width="160" height="90" as="geometry" />
        </mxCell>
        <mxCell id="kvFEr8Y-bFAWC6JD1_fZ-5" value="Pegawai" style="swimlane;childLayout=stackLayout;horizontal=1;startSize=50;horizontalStack=0;rounded=1;fontSize=14;fontStyle=0;strokeWidth=2;resizeParent=0;resizeLast=1;shadow=0;dashed=0;align=center;arcSize=4;whiteSpace=wrap;html=1;" vertex="1" parent="1">
          <mxGeometry x="-120" y="310" width="160" height="145" as="geometry">
            <mxRectangle x="270" y="110" width="80" height="50" as="alternateBounds" />
          </mxGeometry>
        </mxCell>
        <mxCell id="kvFEr8Y-bFAWC6JD1_fZ-6" value="# ID_Pegawai&lt;br&gt;+Nama&lt;br&gt;+username&lt;br&gt;+password&lt;br&gt;+Struktur" style="align=left;strokeColor=none;fillColor=none;spacingLeft=4;fontSize=12;verticalAlign=top;resizable=0;rotatable=0;part=1;html=1;" vertex="1" parent="kvFEr8Y-bFAWC6JD1_fZ-5">
          <mxGeometry y="50" width="160" height="95" as="geometry" />
        </mxCell>
        <mxCell id="kvFEr8Y-bFAWC6JD1_fZ-7" value="" style="edgeStyle=entityRelationEdgeStyle;fontSize=12;html=1;endArrow=ERzeroToMany;endFill=1;rounded=0;entryX=1;entryY=0.25;entryDx=0;entryDy=0;exitX=0;exitY=0.25;exitDx=0;exitDy=0;" edge="1" parent="1" source="kvFEr8Y-bFAWC6JD1_fZ-4" target="kvFEr8Y-bFAWC6JD1_fZ-2">
          <mxGeometry width="100" height="100" relative="1" as="geometry">
            <mxPoint x="370" y="350" as="sourcePoint" />
            <mxPoint x="470" y="250" as="targetPoint" />
          </mxGeometry>
        </mxCell>
        <mxCell id="kvFEr8Y-bFAWC6JD1_fZ-8" value="Struktur" style="swimlane;childLayout=stackLayout;horizontal=1;startSize=40;horizontalStack=0;rounded=1;fontSize=14;fontStyle=0;strokeWidth=2;resizeParent=0;resizeLast=1;shadow=0;dashed=0;align=center;arcSize=4;whiteSpace=wrap;html=1;" vertex="1" parent="1">
          <mxGeometry x="150" y="200" width="170" height="120" as="geometry" />
        </mxCell>
        <mxCell id="kvFEr8Y-bFAWC6JD1_fZ-9" value="# # ID_Pegawai&lt;br&gt;# ID_Project&lt;br&gt;&lt;em style=&quot;border-color: var(--border-color); box-sizing: inherit;&quot; class=&quot;mb&quot;&gt;+&amp;nbsp;&lt;/em&gt;&lt;span style=&quot;border-color: var(--border-color); box-sizing: inherit;&quot; class=&quot;mb&quot;&gt;Nama_Struktur&lt;br&gt;&lt;/span&gt;&lt;span style=&quot;border-color: var(--border-color); box-sizing: inherit;&quot; class=&quot;mb&quot;&gt;&lt;br style=&quot;border-color: var(--border-color);&quot;&gt;&lt;/span&gt;" style="align=left;strokeColor=none;fillColor=none;spacingLeft=4;fontSize=12;verticalAlign=top;resizable=0;rotatable=0;part=1;html=1;" vertex="1" parent="kvFEr8Y-bFAWC6JD1_fZ-8">
          <mxGeometry y="40" width="170" height="80" as="geometry" />
        </mxCell>
        <mxCell id="kvFEr8Y-bFAWC6JD1_fZ-10" value="" style="edgeStyle=entityRelationEdgeStyle;fontSize=12;html=1;endArrow=ERzeroToMany;endFill=1;rounded=0;exitX=1;exitY=0.25;exitDx=0;exitDy=0;" edge="1" parent="1" source="kvFEr8Y-bFAWC6JD1_fZ-6">
          <mxGeometry width="100" height="100" relative="1" as="geometry">
            <mxPoint x="370" y="350" as="sourcePoint" />
            <mxPoint x="150" y="260" as="targetPoint" />
          </mxGeometry>
        </mxCell>
        <mxCell id="kvFEr8Y-bFAWC6JD1_fZ-11" value="" style="edgeStyle=entityRelationEdgeStyle;fontSize=12;html=1;endArrow=ERzeroToMany;endFill=1;rounded=0;entryX=1;entryY=0.25;entryDx=0;entryDy=0;exitX=0;exitY=0.25;exitDx=0;exitDy=0;" edge="1" parent="1" source="kvFEr8Y-bFAWC6JD1_fZ-2" target="kvFEr8Y-bFAWC6JD1_fZ-9">
          <mxGeometry width="100" height="100" relative="1" as="geometry">
            <mxPoint x="370" y="350" as="sourcePoint" />
            <mxPoint x="470" y="250" as="targetPoint" />
          </mxGeometry>
        </mxCell>
        <mxCell id="kvFEr8Y-bFAWC6JD1_fZ-12" value="Tahapan" style="swimlane;childLayout=stackLayout;horizontal=1;startSize=50;horizontalStack=0;rounded=1;fontSize=14;fontStyle=0;strokeWidth=2;resizeParent=0;resizeLast=1;shadow=0;dashed=0;align=center;arcSize=4;whiteSpace=wrap;html=1;" vertex="1" parent="1">
          <mxGeometry x="710" y="350" width="160" height="200" as="geometry" />
        </mxCell>
        <mxCell id="kvFEr8Y-bFAWC6JD1_fZ-13" value="# ID_Tahapan&lt;br&gt;+ Nama_Tahapan&lt;br&gt;+ID_Project&lt;br&gt;+ tgl_start&lt;br&gt;+ Deadline&lt;br&gt;+status&lt;br&gt;+ tgl actual&lt;br&gt;+ hasil_Tahapan&lt;br&gt;+ tgl_input_tugas(otomatis)" style="align=left;strokeColor=none;fillColor=none;spacingLeft=4;fontSize=12;verticalAlign=top;resizable=0;rotatable=0;part=1;html=1;" vertex="1" parent="kvFEr8Y-bFAWC6JD1_fZ-12">
          <mxGeometry y="50" width="160" height="150" as="geometry" />
        </mxCell>
        <mxCell id="kvFEr8Y-bFAWC6JD1_fZ-14" value="" style="edgeStyle=entityRelationEdgeStyle;fontSize=12;html=1;endArrow=ERzeroToMany;endFill=1;rounded=0;entryX=0;entryY=0.25;entryDx=0;entryDy=0;exitX=1;exitY=0.5;exitDx=0;exitDy=0;" edge="1" parent="1" source="kvFEr8Y-bFAWC6JD1_fZ-2" target="kvFEr8Y-bFAWC6JD1_fZ-13">
          <mxGeometry width="100" height="100" relative="1" as="geometry">
            <mxPoint x="370" y="350" as="sourcePoint" />
            <mxPoint x="470" y="250" as="targetPoint" />
          </mxGeometry>
        </mxCell>
        <mxCell id="kvFEr8Y-bFAWC6JD1_fZ-15" value="DetilTahapan" style="swimlane;childLayout=stackLayout;horizontal=1;startSize=30;horizontalStack=0;rounded=1;fontSize=14;fontStyle=0;strokeWidth=2;resizeParent=0;resizeLast=1;shadow=0;dashed=0;align=center;" vertex="1" parent="1">
          <mxGeometry x="490" y="540" width="160" height="150" as="geometry" />
        </mxCell>
        <mxCell id="kvFEr8Y-bFAWC6JD1_fZ-16" value="# ID_DetilTahapan&#xa;+ Nama_Tugas&#xa;+ Desc_Tugas&#xa;+ Status&#xa;+ Hasil_Tugas&#xa;+ DATETIME_Pengumpul&#xa;# ID_Tahapan&#xa;" style="align=left;strokeColor=none;fillColor=none;spacingLeft=4;fontSize=12;verticalAlign=top;resizable=0;rotatable=0;part=1;" vertex="1" parent="kvFEr8Y-bFAWC6JD1_fZ-15">
          <mxGeometry y="30" width="160" height="120" as="geometry" />
        </mxCell>
        <mxCell id="kvFEr8Y-bFAWC6JD1_fZ-17" value="" style="edgeStyle=entityRelationEdgeStyle;fontSize=12;html=1;endArrow=ERzeroToMany;endFill=1;entryX=1;entryY=0.25;entryDx=0;entryDy=0;exitX=0;exitY=0.75;exitDx=0;exitDy=0;" edge="1" parent="1" source="kvFEr8Y-bFAWC6JD1_fZ-12" target="kvFEr8Y-bFAWC6JD1_fZ-16">
          <mxGeometry width="100" height="100" relative="1" as="geometry">
            <mxPoint x="500" y="550" as="sourcePoint" />
            <mxPoint x="600" y="450" as="targetPoint" />
          </mxGeometry>
        </mxCell>
        <mxCell id="kvFEr8Y-bFAWC6JD1_fZ-18" value="Vendor" style="swimlane;childLayout=stackLayout;horizontal=1;startSize=50;horizontalStack=0;rounded=1;fontSize=14;fontStyle=0;strokeWidth=2;resizeParent=0;resizeLast=1;shadow=0;dashed=0;align=center;arcSize=4;whiteSpace=wrap;html=1;" vertex="1" parent="1">
          <mxGeometry x="160" y="425" width="160" height="145" as="geometry">
            <mxRectangle x="710" y="150" width="120" height="50" as="alternateBounds" />
          </mxGeometry>
        </mxCell>
        <mxCell id="kvFEr8Y-bFAWC6JD1_fZ-19" value="# ID_Vendor&lt;br&gt;+Nama_vendor&lt;br&gt;+Jenis_vendor&lt;br&gt;+ Alamat&lt;br&gt;+ kontak" style="align=left;strokeColor=none;fillColor=none;spacingLeft=4;fontSize=12;verticalAlign=top;resizable=0;rotatable=0;part=1;html=1;" vertex="1" parent="kvFEr8Y-bFAWC6JD1_fZ-18">
          <mxGeometry y="50" width="160" height="95" as="geometry" />
        </mxCell>
        <mxCell id="kvFEr8Y-bFAWC6JD1_fZ-20" value="" style="edgeStyle=entityRelationEdgeStyle;fontSize=12;html=1;endArrow=ERzeroToMany;endFill=1;rounded=0;entryX=-0.026;entryY=0.652;entryDx=0;entryDy=0;exitX=1;exitY=0.5;exitDx=0;exitDy=0;entryPerimeter=0;" edge="1" parent="1">
          <mxGeometry width="100" height="100" relative="1" as="geometry">
            <mxPoint x="324.16" y="516.2" as="sourcePoint" />
            <mxPoint x="410.00000000000017" y="334.00000000000006" as="targetPoint" />
          </mxGeometry>
        </mxCell>
      </root>
    </mxGraphModel>
  </diagram>
  <diagram id="inHutFA5O42TSiFc1MxH" name="usecase">
    <mxGraphModel grid="1" page="1" gridSize="10" guides="1" tooltips="1" connect="1" arrows="1" fold="1" pageScale="1" pageWidth="850" pageHeight="1100" math="0" shadow="0">
      <root>
        <mxCell id="0" />
        <mxCell id="1" parent="0" />
        <mxCell id="2zqc965Jz9KGjk-rLXrh-1" value="Sistem Penjualan via tender" style="swimlane;whiteSpace=wrap;html=1;startSize=23;" vertex="1" parent="1">
          <mxGeometry x="220" y="130" width="460" height="650" as="geometry" />
        </mxCell>
        <mxCell id="2zqc965Jz9KGjk-rLXrh-4" value="Login" style="ellipse;whiteSpace=wrap;html=1;" vertex="1" parent="2zqc965Jz9KGjk-rLXrh-1">
          <mxGeometry x="190" y="220" width="110" height="50" as="geometry" />
        </mxCell>
        <mxCell id="2zqc965Jz9KGjk-rLXrh-5" value="Mengelola Data Pegawai" style="ellipse;whiteSpace=wrap;html=1;" vertex="1" parent="2zqc965Jz9KGjk-rLXrh-1">
          <mxGeometry x="20" y="60" width="110" height="50" as="geometry" />
        </mxCell>
        <mxCell id="2zqc965Jz9KGjk-rLXrh-6" value="Mengelola Data PO" style="ellipse;whiteSpace=wrap;html=1;" vertex="1" parent="2zqc965Jz9KGjk-rLXrh-1">
          <mxGeometry x="20" y="150" width="110" height="50" as="geometry" />
        </mxCell>
        <mxCell id="2zqc965Jz9KGjk-rLXrh-8" value="Melihat PO" style="ellipse;whiteSpace=wrap;html=1;" vertex="1" parent="2zqc965Jz9KGjk-rLXrh-1">
          <mxGeometry x="330" y="140" width="110" height="50" as="geometry" />
        </mxCell>
        <mxCell id="2zqc965Jz9KGjk-rLXrh-9" value="Mengirim hasil Tahapan" style="ellipse;whiteSpace=wrap;html=1;" vertex="1" parent="2zqc965Jz9KGjk-rLXrh-1">
          <mxGeometry x="330" y="230" width="110" height="50" as="geometry" />
        </mxCell>
        <mxCell id="2zqc965Jz9KGjk-rLXrh-10" value="Mengirim hasil Detail Tahapan" style="ellipse;whiteSpace=wrap;html=1;" vertex="1" parent="2zqc965Jz9KGjk-rLXrh-1">
          <mxGeometry x="330" y="340" width="110" height="50" as="geometry" />
        </mxCell>
        <mxCell id="rQteAHNyexxcSabeMcQF-1" value="Mengelola Data Tahapan" style="ellipse;whiteSpace=wrap;html=1;" vertex="1" parent="2zqc965Jz9KGjk-rLXrh-1">
          <mxGeometry x="23.38" y="240.00000000000003" width="110" height="50" as="geometry" />
        </mxCell>
        <mxCell id="rQteAHNyexxcSabeMcQF-2" value="Mengelola Data Detail Tahapan" style="ellipse;whiteSpace=wrap;html=1;" vertex="1" parent="2zqc965Jz9KGjk-rLXrh-1">
          <mxGeometry x="33.38" y="320" width="110" height="50" as="geometry" />
        </mxCell>
        <mxCell id="rQteAHNyexxcSabeMcQF-3" value="Mengelola Data Vendor" style="ellipse;whiteSpace=wrap;html=1;" vertex="1" parent="2zqc965Jz9KGjk-rLXrh-1">
          <mxGeometry x="33.38" y="390" width="110" height="50" as="geometry" />
        </mxCell>
        <mxCell id="rQteAHNyexxcSabeMcQF-4" value="Mengelola Data Client" style="ellipse;whiteSpace=wrap;html=1;" vertex="1" parent="2zqc965Jz9KGjk-rLXrh-1">
          <mxGeometry x="33.38" y="460" width="110" height="50" as="geometry" />
        </mxCell>
        <mxCell id="rQteAHNyexxcSabeMcQF-13" value="" style="endArrow=none;html=1;rounded=0;" edge="1" parent="2zqc965Jz9KGjk-rLXrh-1" target="2zqc965Jz9KGjk-rLXrh-3">
          <mxGeometry width="50" height="50" relative="1" as="geometry">
            <mxPoint x="440" y="170" as="sourcePoint" />
            <mxPoint x="500" y="265" as="targetPoint" />
            <Array as="points" />
          </mxGeometry>
        </mxCell>
        <mxCell id="rQteAHNyexxcSabeMcQF-16" value="" style="html=1;verticalAlign=bottom;endArrow=open;dashed=1;endSize=8;curved=0;rounded=0;exitX=1;exitY=0.5;exitDx=0;exitDy=0;entryX=0.5;entryY=0;entryDx=0;entryDy=0;" edge="1" parent="2zqc965Jz9KGjk-rLXrh-1" source="2zqc965Jz9KGjk-rLXrh-5" target="2zqc965Jz9KGjk-rLXrh-4">
          <mxGeometry relative="1" as="geometry">
            <mxPoint x="250" y="100" as="sourcePoint" />
            <mxPoint x="170" y="100" as="targetPoint" />
            <Array as="points" />
          </mxGeometry>
        </mxCell>
        <mxCell id="rQteAHNyexxcSabeMcQF-19" value="include" style="edgeLabel;html=1;align=center;verticalAlign=middle;resizable=0;points=[];" connectable="0" vertex="1" parent="rQteAHNyexxcSabeMcQF-16">
          <mxGeometry x="-0.1879" y="4" relative="1" as="geometry">
            <mxPoint as="offset" />
          </mxGeometry>
        </mxCell>
        <mxCell id="rQteAHNyexxcSabeMcQF-18" value="" style="html=1;verticalAlign=bottom;endArrow=open;dashed=1;endSize=8;curved=0;rounded=0;exitX=1;exitY=0.5;exitDx=0;exitDy=0;" edge="1" parent="2zqc965Jz9KGjk-rLXrh-1" source="2zqc965Jz9KGjk-rLXrh-6" target="2zqc965Jz9KGjk-rLXrh-4">
          <mxGeometry relative="1" as="geometry">
            <mxPoint x="140" y="95" as="sourcePoint" />
            <mxPoint x="255" y="230" as="targetPoint" />
            <Array as="points" />
          </mxGeometry>
        </mxCell>
        <mxCell id="rQteAHNyexxcSabeMcQF-20" value="include" style="edgeLabel;html=1;align=center;verticalAlign=middle;resizable=0;points=[];" connectable="0" vertex="1" parent="rQteAHNyexxcSabeMcQF-18">
          <mxGeometry x="-0.4543" y="3" relative="1" as="geometry">
            <mxPoint as="offset" />
          </mxGeometry>
        </mxCell>
        <mxCell id="rQteAHNyexxcSabeMcQF-21" value="" style="html=1;verticalAlign=bottom;endArrow=open;dashed=1;endSize=8;curved=0;rounded=0;exitX=1;exitY=0.5;exitDx=0;exitDy=0;entryX=0.082;entryY=0.8;entryDx=0;entryDy=0;entryPerimeter=0;" edge="1" parent="2zqc965Jz9KGjk-rLXrh-1" source="rQteAHNyexxcSabeMcQF-1" target="2zqc965Jz9KGjk-rLXrh-4">
          <mxGeometry relative="1" as="geometry">
            <mxPoint x="140" y="297.5" as="sourcePoint" />
            <mxPoint x="255" y="432.5" as="targetPoint" />
            <Array as="points" />
          </mxGeometry>
        </mxCell>
        <mxCell id="rQteAHNyexxcSabeMcQF-22" value="include" style="edgeLabel;html=1;align=center;verticalAlign=middle;resizable=0;points=[];" connectable="0" vertex="1" parent="rQteAHNyexxcSabeMcQF-21">
          <mxGeometry x="-0.1879" y="4" relative="1" as="geometry">
            <mxPoint as="offset" />
          </mxGeometry>
        </mxCell>
        <mxCell id="rQteAHNyexxcSabeMcQF-23" value="" style="html=1;verticalAlign=bottom;endArrow=open;dashed=1;endSize=8;curved=0;rounded=0;exitX=1;exitY=0.5;exitDx=0;exitDy=0;entryX=0.227;entryY=1;entryDx=0;entryDy=0;entryPerimeter=0;" edge="1" parent="2zqc965Jz9KGjk-rLXrh-1" source="rQteAHNyexxcSabeMcQF-2" target="2zqc965Jz9KGjk-rLXrh-4">
          <mxGeometry relative="1" as="geometry">
            <mxPoint x="150" y="395" as="sourcePoint" />
            <mxPoint x="209" y="270" as="targetPoint" />
            <Array as="points" />
          </mxGeometry>
        </mxCell>
        <mxCell id="rQteAHNyexxcSabeMcQF-24" value="include" style="edgeLabel;html=1;align=center;verticalAlign=middle;resizable=0;points=[];" connectable="0" vertex="1" parent="rQteAHNyexxcSabeMcQF-23">
          <mxGeometry x="-0.1879" y="4" relative="1" as="geometry">
            <mxPoint as="offset" />
          </mxGeometry>
        </mxCell>
        <mxCell id="rQteAHNyexxcSabeMcQF-25" value="" style="html=1;verticalAlign=bottom;endArrow=open;dashed=1;endSize=8;curved=0;rounded=0;exitX=1;exitY=0.5;exitDx=0;exitDy=0;" edge="1" parent="2zqc965Jz9KGjk-rLXrh-1" source="rQteAHNyexxcSabeMcQF-3" target="2zqc965Jz9KGjk-rLXrh-4">
          <mxGeometry relative="1" as="geometry">
            <mxPoint x="160" y="475" as="sourcePoint" />
            <mxPoint x="219" y="280" as="targetPoint" />
            <Array as="points">
              <mxPoint x="190" y="415" />
            </Array>
          </mxGeometry>
        </mxCell>
        <mxCell id="rQteAHNyexxcSabeMcQF-26" value="include" style="edgeLabel;html=1;align=center;verticalAlign=middle;resizable=0;points=[];" connectable="0" vertex="1" parent="rQteAHNyexxcSabeMcQF-25">
          <mxGeometry x="-0.1879" y="4" relative="1" as="geometry">
            <mxPoint as="offset" />
          </mxGeometry>
        </mxCell>
        <mxCell id="rQteAHNyexxcSabeMcQF-27" value="" style="html=1;verticalAlign=bottom;endArrow=open;dashed=1;endSize=8;curved=0;rounded=0;exitX=1;exitY=0.5;exitDx=0;exitDy=0;entryX=0.5;entryY=1;entryDx=0;entryDy=0;" edge="1" parent="2zqc965Jz9KGjk-rLXrh-1" source="rQteAHNyexxcSabeMcQF-4" target="2zqc965Jz9KGjk-rLXrh-4">
          <mxGeometry relative="1" as="geometry">
            <mxPoint x="160" y="475" as="sourcePoint" />
            <mxPoint x="225" y="280" as="targetPoint" />
            <Array as="points">
              <mxPoint x="245" y="485" />
            </Array>
          </mxGeometry>
        </mxCell>
        <mxCell id="rQteAHNyexxcSabeMcQF-28" value="include" style="edgeLabel;html=1;align=center;verticalAlign=middle;resizable=0;points=[];" connectable="0" vertex="1" parent="rQteAHNyexxcSabeMcQF-27">
          <mxGeometry x="-0.1879" y="4" relative="1" as="geometry">
            <mxPoint as="offset" />
          </mxGeometry>
        </mxCell>
        <mxCell id="rQteAHNyexxcSabeMcQF-29" value="" style="html=1;verticalAlign=bottom;endArrow=open;dashed=1;endSize=8;curved=0;rounded=0;exitX=0;exitY=0.5;exitDx=0;exitDy=0;entryX=0.664;entryY=1.06;entryDx=0;entryDy=0;entryPerimeter=0;" edge="1" parent="2zqc965Jz9KGjk-rLXrh-1" source="2zqc965Jz9KGjk-rLXrh-10" target="2zqc965Jz9KGjk-rLXrh-4">
          <mxGeometry relative="1" as="geometry">
            <mxPoint x="160" y="615" as="sourcePoint" />
            <mxPoint x="255" y="280" as="targetPoint" />
            <Array as="points" />
          </mxGeometry>
        </mxCell>
        <mxCell id="rQteAHNyexxcSabeMcQF-30" value="include" style="edgeLabel;html=1;align=center;verticalAlign=middle;resizable=0;points=[];" connectable="0" vertex="1" parent="rQteAHNyexxcSabeMcQF-29">
          <mxGeometry x="-0.1879" y="4" relative="1" as="geometry">
            <mxPoint as="offset" />
          </mxGeometry>
        </mxCell>
        <mxCell id="rQteAHNyexxcSabeMcQF-31" value="" style="html=1;verticalAlign=bottom;endArrow=open;dashed=1;endSize=8;curved=0;rounded=0;exitX=0.009;exitY=0.68;exitDx=0;exitDy=0;entryX=1;entryY=0.5;entryDx=0;entryDy=0;exitPerimeter=0;" edge="1" parent="2zqc965Jz9KGjk-rLXrh-1" source="2zqc965Jz9KGjk-rLXrh-9" target="2zqc965Jz9KGjk-rLXrh-4">
          <mxGeometry relative="1" as="geometry">
            <mxPoint x="340" y="375" as="sourcePoint" />
            <mxPoint x="265" y="290" as="targetPoint" />
            <Array as="points" />
          </mxGeometry>
        </mxCell>
        <mxCell id="rQteAHNyexxcSabeMcQF-32" value="include" style="edgeLabel;html=1;align=center;verticalAlign=middle;resizable=0;points=[];" connectable="0" vertex="1" parent="rQteAHNyexxcSabeMcQF-31">
          <mxGeometry x="-0.1879" y="4" relative="1" as="geometry">
            <mxPoint as="offset" />
          </mxGeometry>
        </mxCell>
        <mxCell id="rQteAHNyexxcSabeMcQF-33" value="" style="html=1;verticalAlign=bottom;endArrow=open;dashed=1;endSize=8;curved=0;rounded=0;exitX=0;exitY=0.5;exitDx=0;exitDy=0;entryX=1;entryY=0;entryDx=0;entryDy=0;" edge="1" parent="2zqc965Jz9KGjk-rLXrh-1" source="2zqc965Jz9KGjk-rLXrh-8" target="2zqc965Jz9KGjk-rLXrh-4">
          <mxGeometry relative="1" as="geometry">
            <mxPoint x="340" y="375" as="sourcePoint" />
            <mxPoint x="273" y="283" as="targetPoint" />
            <Array as="points" />
          </mxGeometry>
        </mxCell>
        <mxCell id="rQteAHNyexxcSabeMcQF-34" value="include" style="edgeLabel;html=1;align=center;verticalAlign=middle;resizable=0;points=[];" connectable="0" vertex="1" parent="rQteAHNyexxcSabeMcQF-33">
          <mxGeometry x="-0.1879" y="4" relative="1" as="geometry">
            <mxPoint as="offset" />
          </mxGeometry>
        </mxCell>
        <mxCell id="2zqc965Jz9KGjk-rLXrh-2" value="Admin" style="shape=umlActor;verticalLabelPosition=bottom;verticalAlign=top;html=1;outlineConnect=0;" vertex="1" parent="1">
          <mxGeometry x="120" y="280" width="30" height="60" as="geometry" />
        </mxCell>
        <mxCell id="2zqc965Jz9KGjk-rLXrh-3" value="Pegawai" style="shape=umlActor;verticalLabelPosition=bottom;verticalAlign=top;html=1;outlineConnect=0;" vertex="1" parent="1">
          <mxGeometry x="730" y="280" width="30" height="60" as="geometry" />
        </mxCell>
        <mxCell id="rQteAHNyexxcSabeMcQF-7" value="" style="endArrow=none;html=1;rounded=0;entryX=0;entryY=0.5;entryDx=0;entryDy=0;" edge="1" parent="1" target="2zqc965Jz9KGjk-rLXrh-5">
          <mxGeometry width="50" height="50" relative="1" as="geometry">
            <mxPoint x="160" y="300" as="sourcePoint" />
            <mxPoint x="410" y="390" as="targetPoint" />
          </mxGeometry>
        </mxCell>
        <mxCell id="rQteAHNyexxcSabeMcQF-8" value="" style="endArrow=none;html=1;rounded=0;exitX=1;exitY=0.3333333333333333;exitDx=0;exitDy=0;exitPerimeter=0;" edge="1" parent="1" source="2zqc965Jz9KGjk-rLXrh-2">
          <mxGeometry width="50" height="50" relative="1" as="geometry">
            <mxPoint x="160" y="306" as="sourcePoint" />
            <mxPoint x="240" y="310" as="targetPoint" />
          </mxGeometry>
        </mxCell>
        <mxCell id="rQteAHNyexxcSabeMcQF-9" value="" style="endArrow=none;html=1;rounded=0;entryX=0;entryY=0.5;entryDx=0;entryDy=0;" edge="1" parent="1" target="rQteAHNyexxcSabeMcQF-1">
          <mxGeometry width="50" height="50" relative="1" as="geometry">
            <mxPoint x="160" y="300" as="sourcePoint" />
            <mxPoint x="250" y="320" as="targetPoint" />
            <Array as="points">
              <mxPoint x="160" y="395" />
            </Array>
          </mxGeometry>
        </mxCell>
        <mxCell id="rQteAHNyexxcSabeMcQF-10" value="" style="endArrow=none;html=1;rounded=0;entryX=0;entryY=0.5;entryDx=0;entryDy=0;" edge="1" parent="1" target="rQteAHNyexxcSabeMcQF-2">
          <mxGeometry width="50" height="50" relative="1" as="geometry">
            <mxPoint x="160" y="370" as="sourcePoint" />
            <mxPoint x="240" y="465" as="targetPoint" />
            <Array as="points">
              <mxPoint x="160" y="465" />
            </Array>
          </mxGeometry>
        </mxCell>
        <mxCell id="rQteAHNyexxcSabeMcQF-11" value="" style="endArrow=none;html=1;rounded=0;entryX=0;entryY=0.5;entryDx=0;entryDy=0;" edge="1" parent="1" target="rQteAHNyexxcSabeMcQF-3">
          <mxGeometry width="50" height="50" relative="1" as="geometry">
            <mxPoint x="160" y="445" as="sourcePoint" />
            <mxPoint x="250" y="550" as="targetPoint" />
            <Array as="points">
              <mxPoint x="160" y="540" />
            </Array>
          </mxGeometry>
        </mxCell>
        <mxCell id="rQteAHNyexxcSabeMcQF-12" value="" style="endArrow=none;html=1;rounded=0;entryX=0;entryY=0.5;entryDx=0;entryDy=0;" edge="1" parent="1" target="rQteAHNyexxcSabeMcQF-4">
          <mxGeometry width="50" height="50" relative="1" as="geometry">
            <mxPoint x="160" y="530" as="sourcePoint" />
            <mxPoint x="250" y="630" as="targetPoint" />
            <Array as="points">
              <mxPoint x="160" y="625" />
            </Array>
          </mxGeometry>
        </mxCell>
        <mxCell id="rQteAHNyexxcSabeMcQF-14" value="" style="endArrow=none;html=1;rounded=0;exitX=1;exitY=0.5;exitDx=0;exitDy=0;" edge="1" parent="1" source="2zqc965Jz9KGjk-rLXrh-9">
          <mxGeometry width="50" height="50" relative="1" as="geometry">
            <mxPoint x="670" y="310" as="sourcePoint" />
            <mxPoint x="730" y="310" as="targetPoint" />
            <Array as="points">
              <mxPoint x="710" y="380" />
            </Array>
          </mxGeometry>
        </mxCell>
        <mxCell id="rQteAHNyexxcSabeMcQF-15" value="" style="endArrow=none;html=1;rounded=0;exitX=1;exitY=0.5;exitDx=0;exitDy=0;" edge="1" parent="1" source="2zqc965Jz9KGjk-rLXrh-10">
          <mxGeometry width="50" height="50" relative="1" as="geometry">
            <mxPoint x="640" y="465" as="sourcePoint" />
            <mxPoint x="710" y="380" as="targetPoint" />
            <Array as="points">
              <mxPoint x="710" y="495" />
            </Array>
          </mxGeometry>
        </mxCell>
      </root>
    </mxGraphModel>
  </diagram>
  <diagram id="V4xn24XdGJJHwc1FrWI_" name="Login">
    <mxGraphModel grid="1" page="1" gridSize="10" guides="1" tooltips="1" connect="1" arrows="1" fold="1" pageScale="1" pageWidth="850" pageHeight="1100" math="0" shadow="0">
      <root>
        <mxCell id="0" />
        <mxCell id="1" parent="0" />
        <mxCell id="hkVhHSNpvcIQVpQVUQ6W-1" value="Admin,Pegawai" style="swimlane;whiteSpace=wrap" vertex="1" parent="1">
          <mxGeometry x="-280" y="320" width="280" height="620" as="geometry" />
        </mxCell>
        <mxCell id="hkVhHSNpvcIQVpQVUQ6W-2" style="edgeStyle=orthogonalEdgeStyle;rounded=0;orthogonalLoop=1;jettySize=auto;html=1;" edge="1" parent="hkVhHSNpvcIQVpQVUQ6W-1" source="hkVhHSNpvcIQVpQVUQ6W-3" target="hkVhHSNpvcIQVpQVUQ6W-4">
          <mxGeometry relative="1" as="geometry" />
        </mxCell>
        <mxCell id="hkVhHSNpvcIQVpQVUQ6W-3" value="" style="ellipse;shape=startState;fillColor=#000000;strokeColor=#ff0000;" vertex="1" parent="hkVhHSNpvcIQVpQVUQ6W-1">
          <mxGeometry x="100" y="40" width="30" height="30" as="geometry" />
        </mxCell>
        <mxCell id="hkVhHSNpvcIQVpQVUQ6W-4" value="Klik Button Login" style="rounded=1;whiteSpace=wrap;html=1;" vertex="1" parent="hkVhHSNpvcIQVpQVUQ6W-1">
          <mxGeometry x="55" y="130" width="120" height="60" as="geometry" />
        </mxCell>
        <mxCell id="hkVhHSNpvcIQVpQVUQ6W-5" value="Mengisi Form Login" style="rounded=1;whiteSpace=wrap;html=1;" vertex="1" parent="hkVhHSNpvcIQVpQVUQ6W-1">
          <mxGeometry x="60" y="260" width="120" height="60" as="geometry" />
        </mxCell>
        <mxCell id="hkVhHSNpvcIQVpQVUQ6W-6" value="Sistem" style="swimlane;whiteSpace=wrap" vertex="1" parent="1">
          <mxGeometry y="320" width="280" height="620" as="geometry" />
        </mxCell>
        <mxCell id="hkVhHSNpvcIQVpQVUQ6W-7" value="Menampilkan form login" style="rounded=1;whiteSpace=wrap;html=1;" vertex="1" parent="hkVhHSNpvcIQVpQVUQ6W-6">
          <mxGeometry x="60" y="130" width="120" height="60" as="geometry" />
        </mxCell>
        <mxCell id="hkVhHSNpvcIQVpQVUQ6W-8" value="" style="edgeStyle=orthogonalEdgeStyle;rounded=0;orthogonalLoop=1;jettySize=auto;html=1;" edge="1" parent="hkVhHSNpvcIQVpQVUQ6W-6" source="hkVhHSNpvcIQVpQVUQ6W-10" target="hkVhHSNpvcIQVpQVUQ6W-12">
          <mxGeometry relative="1" as="geometry">
            <Array as="points">
              <mxPoint x="120" y="450" />
              <mxPoint x="120" y="450" />
            </Array>
          </mxGeometry>
        </mxCell>
        <mxCell id="hkVhHSNpvcIQVpQVUQ6W-9" value="Benar" style="edgeLabel;html=1;align=center;verticalAlign=middle;resizable=0;points=[];" connectable="0" vertex="1" parent="hkVhHSNpvcIQVpQVUQ6W-8">
          <mxGeometry x="0.4571" y="-3" relative="1" as="geometry">
            <mxPoint x="13" y="-21" as="offset" />
          </mxGeometry>
        </mxCell>
        <mxCell id="hkVhHSNpvcIQVpQVUQ6W-10" value="cek data" style="rhombus;whiteSpace=wrap;html=1;" vertex="1" parent="hkVhHSNpvcIQVpQVUQ6W-6">
          <mxGeometry x="80" y="320" width="80" height="80" as="geometry" />
        </mxCell>
        <mxCell id="hkVhHSNpvcIQVpQVUQ6W-11" style="edgeStyle=orthogonalEdgeStyle;rounded=0;orthogonalLoop=1;jettySize=auto;html=1;" edge="1" parent="hkVhHSNpvcIQVpQVUQ6W-6" source="hkVhHSNpvcIQVpQVUQ6W-12" target="hkVhHSNpvcIQVpQVUQ6W-14">
          <mxGeometry relative="1" as="geometry" />
        </mxCell>
        <mxCell id="hkVhHSNpvcIQVpQVUQ6W-12" value="Menampilkan dashboard" style="rounded=1;whiteSpace=wrap;html=1;" vertex="1" parent="hkVhHSNpvcIQVpQVUQ6W-6">
          <mxGeometry x="70" y="470" width="120" height="60" as="geometry" />
        </mxCell>
        <mxCell id="hkVhHSNpvcIQVpQVUQ6W-13" value="Salah" style="edgeStyle=orthogonalEdgeStyle;rounded=0;orthogonalLoop=1;jettySize=auto;html=1;entryX=0.883;entryY=0.983;entryDx=0;entryDy=0;entryPerimeter=0;" edge="1" parent="hkVhHSNpvcIQVpQVUQ6W-6" source="hkVhHSNpvcIQVpQVUQ6W-10" target="hkVhHSNpvcIQVpQVUQ6W-7">
          <mxGeometry x="-0.0284" y="-14" relative="1" as="geometry">
            <Array as="points">
              <mxPoint x="166" y="360" />
            </Array>
            <mxPoint as="offset" />
          </mxGeometry>
        </mxCell>
        <mxCell id="hkVhHSNpvcIQVpQVUQ6W-14" value="" style="ellipse;html=1;shape=endState;fillColor=#000000;strokeColor=#ff0000;" vertex="1" parent="hkVhHSNpvcIQVpQVUQ6W-6">
          <mxGeometry x="115" y="580" width="30" height="30" as="geometry" />
        </mxCell>
        <mxCell id="hkVhHSNpvcIQVpQVUQ6W-15" style="edgeStyle=orthogonalEdgeStyle;rounded=0;orthogonalLoop=1;jettySize=auto;html=1;entryX=0;entryY=0.5;entryDx=0;entryDy=0;" edge="1" parent="1" source="hkVhHSNpvcIQVpQVUQ6W-4" target="hkVhHSNpvcIQVpQVUQ6W-7">
          <mxGeometry relative="1" as="geometry" />
        </mxCell>
        <mxCell id="hkVhHSNpvcIQVpQVUQ6W-16" style="edgeStyle=orthogonalEdgeStyle;rounded=0;orthogonalLoop=1;jettySize=auto;html=1;" edge="1" parent="1" source="hkVhHSNpvcIQVpQVUQ6W-7">
          <mxGeometry relative="1" as="geometry">
            <mxPoint x="-100" y="600" as="targetPoint" />
            <Array as="points">
              <mxPoint x="110" y="600" />
              <mxPoint x="-100" y="600" />
            </Array>
          </mxGeometry>
        </mxCell>
        <mxCell id="hkVhHSNpvcIQVpQVUQ6W-17" style="edgeStyle=orthogonalEdgeStyle;rounded=0;orthogonalLoop=1;jettySize=auto;html=1;" edge="1" parent="1" source="hkVhHSNpvcIQVpQVUQ6W-5" target="hkVhHSNpvcIQVpQVUQ6W-10">
          <mxGeometry relative="1" as="geometry">
            <Array as="points">
              <mxPoint x="-170" y="680" />
            </Array>
          </mxGeometry>
        </mxCell>
      </root>
    </mxGraphModel>
  </diagram>
  <diagram id="k55GySXl7-GVrbtlWqPv" name="Data Pegawai">
    <mxGraphModel grid="1" page="1" gridSize="10" guides="1" tooltips="1" connect="1" arrows="1" fold="1" pageScale="1" pageWidth="850" pageHeight="1100" math="0" shadow="0">
      <root>
        <mxCell id="0" />
        <mxCell id="1" parent="0" />
        <mxCell id="-yxQ449ufait8Ze9nZl4-1" value="admin" style="swimlane;whiteSpace=wrap" vertex="1" parent="1">
          <mxGeometry x="80" y="160" width="280" height="570" as="geometry" />
        </mxCell>
        <mxCell id="-yxQ449ufait8Ze9nZl4-2" style="edgeStyle=orthogonalEdgeStyle;rounded=0;orthogonalLoop=1;jettySize=auto;html=1;" edge="1" parent="-yxQ449ufait8Ze9nZl4-1" source="-yxQ449ufait8Ze9nZl4-3" target="-yxQ449ufait8Ze9nZl4-4">
          <mxGeometry relative="1" as="geometry">
            <mxPoint x="115" y="130" as="targetPoint" />
          </mxGeometry>
        </mxCell>
        <mxCell id="-yxQ449ufait8Ze9nZl4-3" value="" style="ellipse;shape=startState;fillColor=#000000;strokeColor=#ff0000;" vertex="1" parent="-yxQ449ufait8Ze9nZl4-1">
          <mxGeometry x="100" y="40" width="30" height="30" as="geometry" />
        </mxCell>
        <mxCell id="-yxQ449ufait8Ze9nZl4-4" value="Klik Halaman Mengelola Data Pegawai" style="rounded=1;whiteSpace=wrap;html=1;" vertex="1" parent="-yxQ449ufait8Ze9nZl4-1">
          <mxGeometry x="55" y="140" width="120" height="60" as="geometry" />
        </mxCell>
        <mxCell id="-yxQ449ufait8Ze9nZl4-5" value="Tambah/Hapus/Edit" style="rounded=1;whiteSpace=wrap;html=1;" vertex="1" parent="-yxQ449ufait8Ze9nZl4-1">
          <mxGeometry x="55" y="240" width="120" height="60" as="geometry" />
        </mxCell>
        <mxCell id="-yxQ449ufait8Ze9nZl4-6" value="Sistem" style="swimlane;whiteSpace=wrap" vertex="1" parent="1">
          <mxGeometry x="360" y="160" width="280" height="570" as="geometry" />
        </mxCell>
        <mxCell id="-yxQ449ufait8Ze9nZl4-7" value="Menampilkkan List Data Pegawai" style="rounded=1;whiteSpace=wrap;html=1;" vertex="1" parent="-yxQ449ufait8Ze9nZl4-6">
          <mxGeometry x="60" y="140" width="120" height="60" as="geometry" />
        </mxCell>
        <mxCell id="-yxQ449ufait8Ze9nZl4-8" style="edgeStyle=orthogonalEdgeStyle;rounded=0;orthogonalLoop=1;jettySize=auto;html=1;entryX=0.5;entryY=0;entryDx=0;entryDy=0;" edge="1" parent="-yxQ449ufait8Ze9nZl4-6" source="-yxQ449ufait8Ze9nZl4-9" target="-yxQ449ufait8Ze9nZl4-10">
          <mxGeometry relative="1" as="geometry" />
        </mxCell>
        <mxCell id="-yxQ449ufait8Ze9nZl4-9" value="Menamppilkan Data Terbaru" style="rounded=1;whiteSpace=wrap;html=1;" vertex="1" parent="-yxQ449ufait8Ze9nZl4-6">
          <mxGeometry x="60" y="290" width="120" height="60" as="geometry" />
        </mxCell>
        <mxCell id="-yxQ449ufait8Ze9nZl4-10" value="" style="ellipse;html=1;shape=endState;fillColor=#000000;strokeColor=#ff0000;" vertex="1" parent="-yxQ449ufait8Ze9nZl4-6">
          <mxGeometry x="105" y="430" width="30" height="30" as="geometry" />
        </mxCell>
        <mxCell id="-yxQ449ufait8Ze9nZl4-11" style="edgeStyle=orthogonalEdgeStyle;rounded=0;orthogonalLoop=1;jettySize=auto;html=1;entryX=0;entryY=0.5;entryDx=0;entryDy=0;" edge="1" parent="1" source="-yxQ449ufait8Ze9nZl4-4" target="-yxQ449ufait8Ze9nZl4-7">
          <mxGeometry relative="1" as="geometry" />
        </mxCell>
        <mxCell id="-yxQ449ufait8Ze9nZl4-12" style="edgeStyle=orthogonalEdgeStyle;rounded=0;orthogonalLoop=1;jettySize=auto;html=1;entryX=0.992;entryY=0.633;entryDx=0;entryDy=0;entryPerimeter=0;" edge="1" parent="1" source="-yxQ449ufait8Ze9nZl4-7" target="-yxQ449ufait8Ze9nZl4-5">
          <mxGeometry relative="1" as="geometry">
            <Array as="points">
              <mxPoint x="470" y="438" />
            </Array>
          </mxGeometry>
        </mxCell>
        <mxCell id="-yxQ449ufait8Ze9nZl4-13" style="edgeStyle=orthogonalEdgeStyle;rounded=0;orthogonalLoop=1;jettySize=auto;html=1;entryX=0;entryY=0.75;entryDx=0;entryDy=0;" edge="1" parent="1" source="-yxQ449ufait8Ze9nZl4-5" target="-yxQ449ufait8Ze9nZl4-9">
          <mxGeometry relative="1" as="geometry">
            <Array as="points">
              <mxPoint x="180" y="495" />
            </Array>
          </mxGeometry>
        </mxCell>
      </root>
    </mxGraphModel>
  </diagram>
  <diagram id="uPGUFWByQDIZj7tgaPt5" name="Data PO">
    <mxGraphModel grid="1" page="1" gridSize="10" guides="1" tooltips="1" connect="1" arrows="1" fold="1" pageScale="1" pageWidth="850" pageHeight="1100" math="0" shadow="0">
      <root>
        <mxCell id="0" />
        <mxCell id="1" parent="0" />
        <mxCell id="WZ9AvHCjFjPgpiK-v2qB-1" value="admin" style="swimlane;whiteSpace=wrap" vertex="1" parent="1">
          <mxGeometry x="80" y="160" width="280" height="570" as="geometry" />
        </mxCell>
        <mxCell id="WZ9AvHCjFjPgpiK-v2qB-2" style="edgeStyle=orthogonalEdgeStyle;rounded=0;orthogonalLoop=1;jettySize=auto;html=1;" edge="1" parent="WZ9AvHCjFjPgpiK-v2qB-1" source="WZ9AvHCjFjPgpiK-v2qB-3" target="WZ9AvHCjFjPgpiK-v2qB-4">
          <mxGeometry relative="1" as="geometry">
            <mxPoint x="115" y="130" as="targetPoint" />
          </mxGeometry>
        </mxCell>
        <mxCell id="WZ9AvHCjFjPgpiK-v2qB-3" value="" style="ellipse;shape=startState;fillColor=#000000;strokeColor=#ff0000;" vertex="1" parent="WZ9AvHCjFjPgpiK-v2qB-1">
          <mxGeometry x="100" y="40" width="30" height="30" as="geometry" />
        </mxCell>
        <mxCell id="WZ9AvHCjFjPgpiK-v2qB-4" value="Klik Halaman Mengelola Data PO" style="rounded=1;whiteSpace=wrap;html=1;" vertex="1" parent="WZ9AvHCjFjPgpiK-v2qB-1">
          <mxGeometry x="55" y="140" width="120" height="60" as="geometry" />
        </mxCell>
        <mxCell id="WZ9AvHCjFjPgpiK-v2qB-5" value="Tambah/Hapus/Edit" style="rounded=1;whiteSpace=wrap;html=1;" vertex="1" parent="WZ9AvHCjFjPgpiK-v2qB-1">
          <mxGeometry x="55" y="240" width="120" height="60" as="geometry" />
        </mxCell>
        <mxCell id="WZ9AvHCjFjPgpiK-v2qB-6" value="Sistem" style="swimlane;whiteSpace=wrap" vertex="1" parent="1">
          <mxGeometry x="360" y="160" width="280" height="570" as="geometry" />
        </mxCell>
        <mxCell id="WZ9AvHCjFjPgpiK-v2qB-7" value="Menampilkkan Data PO" style="rounded=1;whiteSpace=wrap;html=1;" vertex="1" parent="WZ9AvHCjFjPgpiK-v2qB-6">
          <mxGeometry x="60" y="140" width="120" height="60" as="geometry" />
        </mxCell>
        <mxCell id="WZ9AvHCjFjPgpiK-v2qB-8" style="edgeStyle=orthogonalEdgeStyle;rounded=0;orthogonalLoop=1;jettySize=auto;html=1;entryX=0.5;entryY=0;entryDx=0;entryDy=0;" edge="1" parent="WZ9AvHCjFjPgpiK-v2qB-6" source="WZ9AvHCjFjPgpiK-v2qB-9" target="WZ9AvHCjFjPgpiK-v2qB-10">
          <mxGeometry relative="1" as="geometry" />
        </mxCell>
        <mxCell id="WZ9AvHCjFjPgpiK-v2qB-9" value="Menamppilkan Data Terbaru" style="rounded=1;whiteSpace=wrap;html=1;" vertex="1" parent="WZ9AvHCjFjPgpiK-v2qB-6">
          <mxGeometry x="60" y="290" width="120" height="60" as="geometry" />
        </mxCell>
        <mxCell id="WZ9AvHCjFjPgpiK-v2qB-10" value="" style="ellipse;html=1;shape=endState;fillColor=#000000;strokeColor=#ff0000;" vertex="1" parent="WZ9AvHCjFjPgpiK-v2qB-6">
          <mxGeometry x="105" y="430" width="30" height="30" as="geometry" />
        </mxCell>
        <mxCell id="WZ9AvHCjFjPgpiK-v2qB-11" style="edgeStyle=orthogonalEdgeStyle;rounded=0;orthogonalLoop=1;jettySize=auto;html=1;entryX=0;entryY=0.5;entryDx=0;entryDy=0;" edge="1" parent="1" source="WZ9AvHCjFjPgpiK-v2qB-4" target="WZ9AvHCjFjPgpiK-v2qB-7">
          <mxGeometry relative="1" as="geometry" />
        </mxCell>
        <mxCell id="WZ9AvHCjFjPgpiK-v2qB-12" style="edgeStyle=orthogonalEdgeStyle;rounded=0;orthogonalLoop=1;jettySize=auto;html=1;entryX=0.992;entryY=0.633;entryDx=0;entryDy=0;entryPerimeter=0;" edge="1" parent="1" source="WZ9AvHCjFjPgpiK-v2qB-7" target="WZ9AvHCjFjPgpiK-v2qB-5">
          <mxGeometry relative="1" as="geometry">
            <Array as="points">
              <mxPoint x="470" y="438" />
            </Array>
          </mxGeometry>
        </mxCell>
        <mxCell id="WZ9AvHCjFjPgpiK-v2qB-13" style="edgeStyle=orthogonalEdgeStyle;rounded=0;orthogonalLoop=1;jettySize=auto;html=1;entryX=0;entryY=0.75;entryDx=0;entryDy=0;" edge="1" parent="1" source="WZ9AvHCjFjPgpiK-v2qB-5" target="WZ9AvHCjFjPgpiK-v2qB-9">
          <mxGeometry relative="1" as="geometry">
            <Array as="points">
              <mxPoint x="180" y="495" />
            </Array>
          </mxGeometry>
        </mxCell>
      </root>
    </mxGraphModel>
  </diagram>
  <diagram id="lIBupffgFTYYCrvF8cgE" name="Tahapan">
    <mxGraphModel grid="1" page="1" gridSize="10" guides="1" tooltips="1" connect="1" arrows="1" fold="1" pageScale="1" pageWidth="850" pageHeight="1100" math="0" shadow="0">
      <root>
        <mxCell id="0" />
        <mxCell id="1" parent="0" />
        <mxCell id="d7BTfMRcd7FnkNL2b2F0-1" value="admin" style="swimlane;whiteSpace=wrap" vertex="1" parent="1">
          <mxGeometry x="80" y="160" width="280" height="570" as="geometry" />
        </mxCell>
        <mxCell id="d7BTfMRcd7FnkNL2b2F0-2" style="edgeStyle=orthogonalEdgeStyle;rounded=0;orthogonalLoop=1;jettySize=auto;html=1;" edge="1" parent="d7BTfMRcd7FnkNL2b2F0-1" source="d7BTfMRcd7FnkNL2b2F0-3" target="d7BTfMRcd7FnkNL2b2F0-4">
          <mxGeometry relative="1" as="geometry">
            <mxPoint x="115" y="130" as="targetPoint" />
          </mxGeometry>
        </mxCell>
        <mxCell id="d7BTfMRcd7FnkNL2b2F0-3" value="" style="ellipse;shape=startState;fillColor=#000000;strokeColor=#ff0000;" vertex="1" parent="d7BTfMRcd7FnkNL2b2F0-1">
          <mxGeometry x="100" y="40" width="30" height="30" as="geometry" />
        </mxCell>
        <mxCell id="d7BTfMRcd7FnkNL2b2F0-4" value="Klik Halaman Mengelola Data Tahapan" style="rounded=1;whiteSpace=wrap;html=1;" vertex="1" parent="d7BTfMRcd7FnkNL2b2F0-1">
          <mxGeometry x="55" y="140" width="120" height="60" as="geometry" />
        </mxCell>
        <mxCell id="d7BTfMRcd7FnkNL2b2F0-5" value="Tambah/Hapus/Edit" style="rounded=1;whiteSpace=wrap;html=1;" vertex="1" parent="d7BTfMRcd7FnkNL2b2F0-1">
          <mxGeometry x="55" y="240" width="120" height="60" as="geometry" />
        </mxCell>
        <mxCell id="d7BTfMRcd7FnkNL2b2F0-6" value="Sistem" style="swimlane;whiteSpace=wrap" vertex="1" parent="1">
          <mxGeometry x="360" y="160" width="280" height="570" as="geometry" />
        </mxCell>
        <mxCell id="d7BTfMRcd7FnkNL2b2F0-7" value="Menampilkkan Data Tahapan" style="rounded=1;whiteSpace=wrap;html=1;" vertex="1" parent="d7BTfMRcd7FnkNL2b2F0-6">
          <mxGeometry x="60" y="140" width="120" height="60" as="geometry" />
        </mxCell>
        <mxCell id="d7BTfMRcd7FnkNL2b2F0-8" style="edgeStyle=orthogonalEdgeStyle;rounded=0;orthogonalLoop=1;jettySize=auto;html=1;entryX=0.5;entryY=0;entryDx=0;entryDy=0;" edge="1" parent="d7BTfMRcd7FnkNL2b2F0-6" source="d7BTfMRcd7FnkNL2b2F0-9" target="d7BTfMRcd7FnkNL2b2F0-10">
          <mxGeometry relative="1" as="geometry" />
        </mxCell>
        <mxCell id="d7BTfMRcd7FnkNL2b2F0-9" value="Menamppilkan Data Terbaru" style="rounded=1;whiteSpace=wrap;html=1;" vertex="1" parent="d7BTfMRcd7FnkNL2b2F0-6">
          <mxGeometry x="60" y="290" width="120" height="60" as="geometry" />
        </mxCell>
        <mxCell id="d7BTfMRcd7FnkNL2b2F0-10" value="" style="ellipse;html=1;shape=endState;fillColor=#000000;strokeColor=#ff0000;" vertex="1" parent="d7BTfMRcd7FnkNL2b2F0-6">
          <mxGeometry x="105" y="430" width="30" height="30" as="geometry" />
        </mxCell>
        <mxCell id="d7BTfMRcd7FnkNL2b2F0-11" style="edgeStyle=orthogonalEdgeStyle;rounded=0;orthogonalLoop=1;jettySize=auto;html=1;entryX=0;entryY=0.5;entryDx=0;entryDy=0;" edge="1" parent="1" source="d7BTfMRcd7FnkNL2b2F0-4" target="d7BTfMRcd7FnkNL2b2F0-7">
          <mxGeometry relative="1" as="geometry" />
        </mxCell>
        <mxCell id="d7BTfMRcd7FnkNL2b2F0-12" style="edgeStyle=orthogonalEdgeStyle;rounded=0;orthogonalLoop=1;jettySize=auto;html=1;entryX=0.992;entryY=0.633;entryDx=0;entryDy=0;entryPerimeter=0;" edge="1" parent="1" source="d7BTfMRcd7FnkNL2b2F0-7" target="d7BTfMRcd7FnkNL2b2F0-5">
          <mxGeometry relative="1" as="geometry">
            <Array as="points">
              <mxPoint x="470" y="438" />
            </Array>
          </mxGeometry>
        </mxCell>
        <mxCell id="d7BTfMRcd7FnkNL2b2F0-13" style="edgeStyle=orthogonalEdgeStyle;rounded=0;orthogonalLoop=1;jettySize=auto;html=1;entryX=0;entryY=0.75;entryDx=0;entryDy=0;" edge="1" parent="1" source="d7BTfMRcd7FnkNL2b2F0-5" target="d7BTfMRcd7FnkNL2b2F0-9">
          <mxGeometry relative="1" as="geometry">
            <Array as="points">
              <mxPoint x="180" y="495" />
            </Array>
          </mxGeometry>
        </mxCell>
      </root>
    </mxGraphModel>
  </diagram>
  <diagram id="0YmQkHIQABTTuQwzmLOs" name="Detail">
    <mxGraphModel grid="1" page="1" gridSize="10" guides="1" tooltips="1" connect="1" arrows="1" fold="1" pageScale="1" pageWidth="850" pageHeight="1100" math="0" shadow="0">
      <root>
        <mxCell id="0" />
        <mxCell id="1" parent="0" />
        <mxCell id="KFfUR0dhcvg6DPUZVOfH-1" value="admin" style="swimlane;whiteSpace=wrap" vertex="1" parent="1">
          <mxGeometry x="80" y="160" width="280" height="570" as="geometry" />
        </mxCell>
        <mxCell id="KFfUR0dhcvg6DPUZVOfH-2" style="edgeStyle=orthogonalEdgeStyle;rounded=0;orthogonalLoop=1;jettySize=auto;html=1;" edge="1" parent="KFfUR0dhcvg6DPUZVOfH-1" source="KFfUR0dhcvg6DPUZVOfH-3" target="KFfUR0dhcvg6DPUZVOfH-4">
          <mxGeometry relative="1" as="geometry">
            <mxPoint x="115" y="130" as="targetPoint" />
          </mxGeometry>
        </mxCell>
        <mxCell id="KFfUR0dhcvg6DPUZVOfH-3" value="" style="ellipse;shape=startState;fillColor=#000000;strokeColor=#ff0000;" vertex="1" parent="KFfUR0dhcvg6DPUZVOfH-1">
          <mxGeometry x="100" y="40" width="30" height="30" as="geometry" />
        </mxCell>
        <mxCell id="KFfUR0dhcvg6DPUZVOfH-4" value="Klik Halaman Mengelola Data Detail Tahapan" style="rounded=1;whiteSpace=wrap;html=1;" vertex="1" parent="KFfUR0dhcvg6DPUZVOfH-1">
          <mxGeometry x="55" y="140" width="120" height="60" as="geometry" />
        </mxCell>
        <mxCell id="KFfUR0dhcvg6DPUZVOfH-5" value="Tambah/Hapus/Edit" style="rounded=1;whiteSpace=wrap;html=1;" vertex="1" parent="KFfUR0dhcvg6DPUZVOfH-1">
          <mxGeometry x="55" y="240" width="120" height="60" as="geometry" />
        </mxCell>
        <mxCell id="KFfUR0dhcvg6DPUZVOfH-6" value="Sistem" style="swimlane;whiteSpace=wrap" vertex="1" parent="1">
          <mxGeometry x="360" y="160" width="280" height="570" as="geometry" />
        </mxCell>
        <mxCell id="KFfUR0dhcvg6DPUZVOfH-7" value="Menampilkkan Data Detail Tahapan" style="rounded=1;whiteSpace=wrap;html=1;" vertex="1" parent="KFfUR0dhcvg6DPUZVOfH-6">
          <mxGeometry x="60" y="140" width="120" height="60" as="geometry" />
        </mxCell>
        <mxCell id="KFfUR0dhcvg6DPUZVOfH-8" style="edgeStyle=orthogonalEdgeStyle;rounded=0;orthogonalLoop=1;jettySize=auto;html=1;entryX=0.5;entryY=0;entryDx=0;entryDy=0;" edge="1" parent="KFfUR0dhcvg6DPUZVOfH-6" source="KFfUR0dhcvg6DPUZVOfH-9" target="KFfUR0dhcvg6DPUZVOfH-10">
          <mxGeometry relative="1" as="geometry" />
        </mxCell>
        <mxCell id="KFfUR0dhcvg6DPUZVOfH-9" value="Menamppilkan Data Terbaru" style="rounded=1;whiteSpace=wrap;html=1;" vertex="1" parent="KFfUR0dhcvg6DPUZVOfH-6">
          <mxGeometry x="60" y="290" width="120" height="60" as="geometry" />
        </mxCell>
        <mxCell id="KFfUR0dhcvg6DPUZVOfH-10" value="" style="ellipse;html=1;shape=endState;fillColor=#000000;strokeColor=#ff0000;" vertex="1" parent="KFfUR0dhcvg6DPUZVOfH-6">
          <mxGeometry x="105" y="430" width="30" height="30" as="geometry" />
        </mxCell>
        <mxCell id="KFfUR0dhcvg6DPUZVOfH-11" style="edgeStyle=orthogonalEdgeStyle;rounded=0;orthogonalLoop=1;jettySize=auto;html=1;entryX=0;entryY=0.5;entryDx=0;entryDy=0;" edge="1" parent="1" source="KFfUR0dhcvg6DPUZVOfH-4" target="KFfUR0dhcvg6DPUZVOfH-7">
          <mxGeometry relative="1" as="geometry" />
        </mxCell>
        <mxCell id="KFfUR0dhcvg6DPUZVOfH-12" style="edgeStyle=orthogonalEdgeStyle;rounded=0;orthogonalLoop=1;jettySize=auto;html=1;entryX=0.992;entryY=0.633;entryDx=0;entryDy=0;entryPerimeter=0;" edge="1" parent="1" source="KFfUR0dhcvg6DPUZVOfH-7" target="KFfUR0dhcvg6DPUZVOfH-5">
          <mxGeometry relative="1" as="geometry">
            <Array as="points">
              <mxPoint x="470" y="438" />
            </Array>
          </mxGeometry>
        </mxCell>
        <mxCell id="KFfUR0dhcvg6DPUZVOfH-13" style="edgeStyle=orthogonalEdgeStyle;rounded=0;orthogonalLoop=1;jettySize=auto;html=1;entryX=0;entryY=0.75;entryDx=0;entryDy=0;" edge="1" parent="1" source="KFfUR0dhcvg6DPUZVOfH-5" target="KFfUR0dhcvg6DPUZVOfH-9">
          <mxGeometry relative="1" as="geometry">
            <Array as="points">
              <mxPoint x="180" y="495" />
            </Array>
          </mxGeometry>
        </mxCell>
      </root>
    </mxGraphModel>
  </diagram>
  <diagram id="48eFwhIoTJQQ5zNIIrWO" name="Vendor">
    <mxGraphModel grid="1" page="1" gridSize="10" guides="1" tooltips="1" connect="1" arrows="1" fold="1" pageScale="1" pageWidth="850" pageHeight="1100" math="0" shadow="0">
      <root>
        <mxCell id="0" />
        <mxCell id="1" parent="0" />
        <mxCell id="D07JRogqnqULIK17Pvb5-1" value="admin" style="swimlane;whiteSpace=wrap" parent="1" vertex="1">
          <mxGeometry x="80" y="160" width="280" height="570" as="geometry" />
        </mxCell>
        <mxCell id="D07JRogqnqULIK17Pvb5-2" style="edgeStyle=orthogonalEdgeStyle;rounded=0;orthogonalLoop=1;jettySize=auto;html=1;" parent="D07JRogqnqULIK17Pvb5-1" source="D07JRogqnqULIK17Pvb5-3" target="D07JRogqnqULIK17Pvb5-4" edge="1">
          <mxGeometry relative="1" as="geometry">
            <mxPoint x="115" y="130" as="targetPoint" />
          </mxGeometry>
        </mxCell>
        <mxCell id="D07JRogqnqULIK17Pvb5-3" value="" style="ellipse;shape=startState;fillColor=#000000;strokeColor=#ff0000;" parent="D07JRogqnqULIK17Pvb5-1" vertex="1">
          <mxGeometry x="100" y="40" width="30" height="30" as="geometry" />
        </mxCell>
        <mxCell id="D07JRogqnqULIK17Pvb5-4" value="Klik Halaman Mengelola Data Vendor" style="rounded=1;whiteSpace=wrap;html=1;" parent="D07JRogqnqULIK17Pvb5-1" vertex="1">
          <mxGeometry x="55" y="140" width="120" height="60" as="geometry" />
        </mxCell>
        <mxCell id="D07JRogqnqULIK17Pvb5-5" value="Tambah/Hapus/Edit" style="rounded=1;whiteSpace=wrap;html=1;" parent="D07JRogqnqULIK17Pvb5-1" vertex="1">
          <mxGeometry x="55" y="240" width="120" height="60" as="geometry" />
        </mxCell>
        <mxCell id="D07JRogqnqULIK17Pvb5-6" value="Sistem" style="swimlane;whiteSpace=wrap" parent="1" vertex="1">
          <mxGeometry x="360" y="160" width="280" height="570" as="geometry" />
        </mxCell>
        <mxCell id="D07JRogqnqULIK17Pvb5-7" value="Menampilkkan Data Vendor" style="rounded=1;whiteSpace=wrap;html=1;" parent="D07JRogqnqULIK17Pvb5-6" vertex="1">
          <mxGeometry x="60" y="140" width="120" height="60" as="geometry" />
        </mxCell>
        <mxCell id="D07JRogqnqULIK17Pvb5-8" style="edgeStyle=orthogonalEdgeStyle;rounded=0;orthogonalLoop=1;jettySize=auto;html=1;entryX=0.5;entryY=0;entryDx=0;entryDy=0;" parent="D07JRogqnqULIK17Pvb5-6" source="D07JRogqnqULIK17Pvb5-9" target="D07JRogqnqULIK17Pvb5-10" edge="1">
          <mxGeometry relative="1" as="geometry" />
        </mxCell>
        <mxCell id="D07JRogqnqULIK17Pvb5-9" value="Menamppilkan Data Terbaru" style="rounded=1;whiteSpace=wrap;html=1;" parent="D07JRogqnqULIK17Pvb5-6" vertex="1">
          <mxGeometry x="60" y="290" width="120" height="60" as="geometry" />
        </mxCell>
        <mxCell id="D07JRogqnqULIK17Pvb5-10" value="" style="ellipse;html=1;shape=endState;fillColor=#000000;strokeColor=#ff0000;" parent="D07JRogqnqULIK17Pvb5-6" vertex="1">
          <mxGeometry x="105" y="430" width="30" height="30" as="geometry" />
        </mxCell>
        <mxCell id="D07JRogqnqULIK17Pvb5-11" style="edgeStyle=orthogonalEdgeStyle;rounded=0;orthogonalLoop=1;jettySize=auto;html=1;entryX=0;entryY=0.5;entryDx=0;entryDy=0;" parent="1" source="D07JRogqnqULIK17Pvb5-4" target="D07JRogqnqULIK17Pvb5-7" edge="1">
          <mxGeometry relative="1" as="geometry" />
        </mxCell>
        <mxCell id="D07JRogqnqULIK17Pvb5-12" style="edgeStyle=orthogonalEdgeStyle;rounded=0;orthogonalLoop=1;jettySize=auto;html=1;entryX=0.992;entryY=0.633;entryDx=0;entryDy=0;entryPerimeter=0;" parent="1" source="D07JRogqnqULIK17Pvb5-7" target="D07JRogqnqULIK17Pvb5-5" edge="1">
          <mxGeometry relative="1" as="geometry">
            <Array as="points">
              <mxPoint x="470" y="438" />
            </Array>
          </mxGeometry>
        </mxCell>
        <mxCell id="D07JRogqnqULIK17Pvb5-13" style="edgeStyle=orthogonalEdgeStyle;rounded=0;orthogonalLoop=1;jettySize=auto;html=1;entryX=0;entryY=0.75;entryDx=0;entryDy=0;" parent="1" source="D07JRogqnqULIK17Pvb5-5" target="D07JRogqnqULIK17Pvb5-9" edge="1">
          <mxGeometry relative="1" as="geometry">
            <Array as="points">
              <mxPoint x="180" y="495" />
            </Array>
          </mxGeometry>
        </mxCell>
      </root>
    </mxGraphModel>
  </diagram>
  <diagram id="PdijsJc9r7uD5ZRg9IdI" name="client">
    <mxGraphModel grid="1" page="1" gridSize="10" guides="1" tooltips="1" connect="1" arrows="1" fold="1" pageScale="1" pageWidth="850" pageHeight="1100" math="0" shadow="0">
      <root>
        <mxCell id="0" />
        <mxCell id="1" parent="0" />
        <mxCell id="hlngzdLBXa_qcP1CDlPD-1" value="admin" style="swimlane;whiteSpace=wrap" parent="1" vertex="1">
          <mxGeometry x="80" y="160" width="280" height="570" as="geometry" />
        </mxCell>
        <mxCell id="hlngzdLBXa_qcP1CDlPD-2" style="edgeStyle=orthogonalEdgeStyle;rounded=0;orthogonalLoop=1;jettySize=auto;html=1;" parent="hlngzdLBXa_qcP1CDlPD-1" source="hlngzdLBXa_qcP1CDlPD-3" target="hlngzdLBXa_qcP1CDlPD-4" edge="1">
          <mxGeometry relative="1" as="geometry">
            <mxPoint x="115" y="130" as="targetPoint" />
          </mxGeometry>
        </mxCell>
        <mxCell id="hlngzdLBXa_qcP1CDlPD-3" value="" style="ellipse;shape=startState;fillColor=#000000;strokeColor=#ff0000;" parent="hlngzdLBXa_qcP1CDlPD-1" vertex="1">
          <mxGeometry x="100" y="40" width="30" height="30" as="geometry" />
        </mxCell>
        <mxCell id="hlngzdLBXa_qcP1CDlPD-4" value="Klik Halaman Mengelola Data Client" style="rounded=1;whiteSpace=wrap;html=1;" parent="hlngzdLBXa_qcP1CDlPD-1" vertex="1">
          <mxGeometry x="55" y="140" width="120" height="60" as="geometry" />
        </mxCell>
        <mxCell id="hlngzdLBXa_qcP1CDlPD-5" value="Tambah/Hapus/Edit" style="rounded=1;whiteSpace=wrap;html=1;" parent="hlngzdLBXa_qcP1CDlPD-1" vertex="1">
          <mxGeometry x="55" y="240" width="120" height="60" as="geometry" />
        </mxCell>
        <mxCell id="hlngzdLBXa_qcP1CDlPD-6" value="Sistem" style="swimlane;whiteSpace=wrap" parent="1" vertex="1">
          <mxGeometry x="360" y="160" width="280" height="570" as="geometry" />
        </mxCell>
        <mxCell id="hlngzdLBXa_qcP1CDlPD-7" value="Menampilkkan Data Client" style="rounded=1;whiteSpace=wrap;html=1;" parent="hlngzdLBXa_qcP1CDlPD-6" vertex="1">
          <mxGeometry x="60" y="140" width="120" height="60" as="geometry" />
        </mxCell>
        <mxCell id="hlngzdLBXa_qcP1CDlPD-8" style="edgeStyle=orthogonalEdgeStyle;rounded=0;orthogonalLoop=1;jettySize=auto;html=1;entryX=0.5;entryY=0;entryDx=0;entryDy=0;" parent="hlngzdLBXa_qcP1CDlPD-6" source="hlngzdLBXa_qcP1CDlPD-9" target="hlngzdLBXa_qcP1CDlPD-10" edge="1">
          <mxGeometry relative="1" as="geometry" />
        </mxCell>
        <mxCell id="hlngzdLBXa_qcP1CDlPD-9" value="Menamppilkan Data Terbaru" style="rounded=1;whiteSpace=wrap;html=1;" parent="hlngzdLBXa_qcP1CDlPD-6" vertex="1">
          <mxGeometry x="60" y="290" width="120" height="60" as="geometry" />
        </mxCell>
        <mxCell id="hlngzdLBXa_qcP1CDlPD-10" value="" style="ellipse;html=1;shape=endState;fillColor=#000000;strokeColor=#ff0000;" parent="hlngzdLBXa_qcP1CDlPD-6" vertex="1">
          <mxGeometry x="105" y="430" width="30" height="30" as="geometry" />
        </mxCell>
        <mxCell id="hlngzdLBXa_qcP1CDlPD-11" style="edgeStyle=orthogonalEdgeStyle;rounded=0;orthogonalLoop=1;jettySize=auto;html=1;entryX=0;entryY=0.5;entryDx=0;entryDy=0;" parent="1" source="hlngzdLBXa_qcP1CDlPD-4" target="hlngzdLBXa_qcP1CDlPD-7" edge="1">
          <mxGeometry relative="1" as="geometry" />
        </mxCell>
        <mxCell id="hlngzdLBXa_qcP1CDlPD-12" style="edgeStyle=orthogonalEdgeStyle;rounded=0;orthogonalLoop=1;jettySize=auto;html=1;entryX=0.992;entryY=0.633;entryDx=0;entryDy=0;entryPerimeter=0;" parent="1" source="hlngzdLBXa_qcP1CDlPD-7" target="hlngzdLBXa_qcP1CDlPD-5" edge="1">
          <mxGeometry relative="1" as="geometry">
            <Array as="points">
              <mxPoint x="470" y="438" />
            </Array>
          </mxGeometry>
        </mxCell>
        <mxCell id="hlngzdLBXa_qcP1CDlPD-13" style="edgeStyle=orthogonalEdgeStyle;rounded=0;orthogonalLoop=1;jettySize=auto;html=1;entryX=0;entryY=0.75;entryDx=0;entryDy=0;" parent="1" source="hlngzdLBXa_qcP1CDlPD-5" target="hlngzdLBXa_qcP1CDlPD-9" edge="1">
          <mxGeometry relative="1" as="geometry">
            <Array as="points">
              <mxPoint x="180" y="495" />
            </Array>
          </mxGeometry>
        </mxCell>
      </root>
    </mxGraphModel>
  </diagram>
  <diagram id="j2NDluASe8_xKxETnEjs" name="Melihat PO">
    <mxGraphModel grid="1" page="1" gridSize="10" guides="1" tooltips="1" connect="1" arrows="1" fold="1" pageScale="1" pageWidth="850" pageHeight="1100" math="0" shadow="0">
      <root>
        <mxCell id="0" />
        <mxCell id="1" parent="0" />
        <mxCell id="t3mzBkFAPgmxMMQfwhKa-1" value="Pegawai" style="swimlane;whiteSpace=wrap" parent="1" vertex="1">
          <mxGeometry x="80" y="160" width="280" height="320" as="geometry" />
        </mxCell>
        <mxCell id="t3mzBkFAPgmxMMQfwhKa-2" style="edgeStyle=orthogonalEdgeStyle;rounded=0;orthogonalLoop=1;jettySize=auto;html=1;" parent="t3mzBkFAPgmxMMQfwhKa-1" source="t3mzBkFAPgmxMMQfwhKa-3" target="t3mzBkFAPgmxMMQfwhKa-4" edge="1">
          <mxGeometry relative="1" as="geometry">
            <mxPoint x="115" y="130" as="targetPoint" />
          </mxGeometry>
        </mxCell>
        <mxCell id="t3mzBkFAPgmxMMQfwhKa-3" value="" style="ellipse;shape=startState;fillColor=#000000;strokeColor=#ff0000;" parent="t3mzBkFAPgmxMMQfwhKa-1" vertex="1">
          <mxGeometry x="100" y="40" width="30" height="30" as="geometry" />
        </mxCell>
        <mxCell id="t3mzBkFAPgmxMMQfwhKa-4" value="Klik Halaman Data PO" style="rounded=1;whiteSpace=wrap;html=1;" parent="t3mzBkFAPgmxMMQfwhKa-1" vertex="1">
          <mxGeometry x="55" y="140" width="120" height="60" as="geometry" />
        </mxCell>
        <mxCell id="t3mzBkFAPgmxMMQfwhKa-6" value="Sistem" style="swimlane;whiteSpace=wrap" parent="1" vertex="1">
          <mxGeometry x="360" y="160" width="280" height="320" as="geometry" />
        </mxCell>
        <mxCell id="t3mzBkFAPgmxMMQfwhKa-7" value="Menampilkkan Data PO" style="rounded=1;whiteSpace=wrap;html=1;" parent="t3mzBkFAPgmxMMQfwhKa-6" vertex="1">
          <mxGeometry x="60" y="140" width="120" height="60" as="geometry" />
        </mxCell>
        <mxCell id="t3mzBkFAPgmxMMQfwhKa-8" style="edgeStyle=orthogonalEdgeStyle;rounded=0;orthogonalLoop=1;jettySize=auto;html=1;entryX=0.5;entryY=0;entryDx=0;entryDy=0;" parent="t3mzBkFAPgmxMMQfwhKa-6" source="t3mzBkFAPgmxMMQfwhKa-7" target="t3mzBkFAPgmxMMQfwhKa-10" edge="1">
          <mxGeometry relative="1" as="geometry">
            <mxPoint x="120" y="350" as="sourcePoint" />
          </mxGeometry>
        </mxCell>
        <mxCell id="t3mzBkFAPgmxMMQfwhKa-10" value="" style="ellipse;html=1;shape=endState;fillColor=#000000;strokeColor=#ff0000;" parent="t3mzBkFAPgmxMMQfwhKa-6" vertex="1">
          <mxGeometry x="105" y="260" width="30" height="30" as="geometry" />
        </mxCell>
        <mxCell id="t3mzBkFAPgmxMMQfwhKa-11" style="edgeStyle=orthogonalEdgeStyle;rounded=0;orthogonalLoop=1;jettySize=auto;html=1;entryX=0;entryY=0.5;entryDx=0;entryDy=0;" parent="1" source="t3mzBkFAPgmxMMQfwhKa-4" target="t3mzBkFAPgmxMMQfwhKa-7" edge="1">
          <mxGeometry relative="1" as="geometry" />
        </mxCell>
      </root>
    </mxGraphModel>
  </diagram>
  <diagram id="ObcWF1VR8Wrqg8_inzH_" name="Hasil Tahapan">
    <mxGraphModel grid="1" page="1" gridSize="10" guides="1" tooltips="1" connect="1" arrows="1" fold="1" pageScale="1" pageWidth="850" pageHeight="1100" math="0" shadow="0">
      <root>
        <mxCell id="0" />
        <mxCell id="1" parent="0" />
        <mxCell id="Ek2feBgdLIjCO6SRDVc8-1" value="Pegawai" style="swimlane;whiteSpace=wrap" vertex="1" parent="1">
          <mxGeometry x="80" y="160" width="280" height="660" as="geometry" />
        </mxCell>
        <mxCell id="Ek2feBgdLIjCO6SRDVc8-2" style="edgeStyle=orthogonalEdgeStyle;rounded=0;orthogonalLoop=1;jettySize=auto;html=1;" edge="1" parent="Ek2feBgdLIjCO6SRDVc8-1" source="Ek2feBgdLIjCO6SRDVc8-3" target="Ek2feBgdLIjCO6SRDVc8-4">
          <mxGeometry relative="1" as="geometry">
            <mxPoint x="115" y="130" as="targetPoint" />
          </mxGeometry>
        </mxCell>
        <mxCell id="Ek2feBgdLIjCO6SRDVc8-3" value="" style="ellipse;shape=startState;fillColor=#000000;strokeColor=#ff0000;" vertex="1" parent="Ek2feBgdLIjCO6SRDVc8-1">
          <mxGeometry x="100" y="40" width="30" height="30" as="geometry" />
        </mxCell>
        <mxCell id="Ek2feBgdLIjCO6SRDVc8-4" value="Klik Halaman Data Tahapan" style="rounded=1;whiteSpace=wrap;html=1;" vertex="1" parent="Ek2feBgdLIjCO6SRDVc8-1">
          <mxGeometry x="55" y="140" width="120" height="60" as="geometry" />
        </mxCell>
        <mxCell id="Ek2feBgdLIjCO6SRDVc8-5" value="Upload Hasil tahapan" style="rounded=1;whiteSpace=wrap;html=1;" vertex="1" parent="Ek2feBgdLIjCO6SRDVc8-1">
          <mxGeometry x="55" y="240" width="120" height="60" as="geometry" />
        </mxCell>
        <mxCell id="Ek2feBgdLIjCO6SRDVc8-6" value="Sistem" style="swimlane;whiteSpace=wrap" vertex="1" parent="1">
          <mxGeometry x="360" y="160" width="280" height="660" as="geometry" />
        </mxCell>
        <mxCell id="Ek2feBgdLIjCO6SRDVc8-7" value="Menampilkkan Data Tahapan" style="rounded=1;whiteSpace=wrap;html=1;" vertex="1" parent="Ek2feBgdLIjCO6SRDVc8-6">
          <mxGeometry x="60" y="140" width="120" height="60" as="geometry" />
        </mxCell>
        <mxCell id="Ek2feBgdLIjCO6SRDVc8-9" value="Menamppilkan Data Terbaru" style="rounded=1;whiteSpace=wrap;html=1;" vertex="1" parent="Ek2feBgdLIjCO6SRDVc8-6">
          <mxGeometry x="70" y="470" width="120" height="60" as="geometry" />
        </mxCell>
        <mxCell id="uVUi3xtWc0t7ueBPa2wP-2" style="edgeStyle=orthogonalEdgeStyle;rounded=0;orthogonalLoop=1;jettySize=auto;html=1;entryX=1;entryY=0.5;entryDx=0;entryDy=0;" edge="1" parent="Ek2feBgdLIjCO6SRDVc8-6" source="uVUi3xtWc0t7ueBPa2wP-1" target="Ek2feBgdLIjCO6SRDVc8-7">
          <mxGeometry relative="1" as="geometry">
            <Array as="points">
              <mxPoint x="200" y="330" />
              <mxPoint x="200" y="170" />
            </Array>
          </mxGeometry>
        </mxCell>
        <mxCell id="uVUi3xtWc0t7ueBPa2wP-3" value="Data Salah" style="edgeLabel;html=1;align=center;verticalAlign=middle;resizable=0;points=[];" connectable="0" vertex="1" parent="uVUi3xtWc0t7ueBPa2wP-2">
          <mxGeometry x="-0.419" y="-1" relative="1" as="geometry">
            <mxPoint as="offset" />
          </mxGeometry>
        </mxCell>
        <mxCell id="uVUi3xtWc0t7ueBPa2wP-4" style="edgeStyle=orthogonalEdgeStyle;rounded=0;orthogonalLoop=1;jettySize=auto;html=1;" edge="1" parent="Ek2feBgdLIjCO6SRDVc8-6" source="uVUi3xtWc0t7ueBPa2wP-1" target="Ek2feBgdLIjCO6SRDVc8-9">
          <mxGeometry relative="1" as="geometry" />
        </mxCell>
        <mxCell id="uVUi3xtWc0t7ueBPa2wP-5" value="Data Benar" style="edgeLabel;html=1;align=center;verticalAlign=middle;resizable=0;points=[];" connectable="0" vertex="1" parent="uVUi3xtWc0t7ueBPa2wP-4">
          <mxGeometry y="2" relative="1" as="geometry">
            <mxPoint as="offset" />
          </mxGeometry>
        </mxCell>
        <mxCell id="uVUi3xtWc0t7ueBPa2wP-1" value="cek data" style="rhombus;whiteSpace=wrap;html=1;" vertex="1" parent="Ek2feBgdLIjCO6SRDVc8-6">
          <mxGeometry x="90" y="290" width="80" height="80" as="geometry" />
        </mxCell>
        <mxCell id="Ek2feBgdLIjCO6SRDVc8-10" value="" style="ellipse;html=1;shape=endState;fillColor=#000000;strokeColor=#ff0000;" vertex="1" parent="Ek2feBgdLIjCO6SRDVc8-6">
          <mxGeometry x="115" y="620" width="30" height="30" as="geometry" />
        </mxCell>
        <mxCell id="Ek2feBgdLIjCO6SRDVc8-8" style="edgeStyle=orthogonalEdgeStyle;rounded=0;orthogonalLoop=1;jettySize=auto;html=1;entryX=0.5;entryY=0;entryDx=0;entryDy=0;" edge="1" parent="Ek2feBgdLIjCO6SRDVc8-6" source="Ek2feBgdLIjCO6SRDVc8-9" target="Ek2feBgdLIjCO6SRDVc8-10">
          <mxGeometry relative="1" as="geometry" />
        </mxCell>
        <mxCell id="Ek2feBgdLIjCO6SRDVc8-11" style="edgeStyle=orthogonalEdgeStyle;rounded=0;orthogonalLoop=1;jettySize=auto;html=1;entryX=0;entryY=0.5;entryDx=0;entryDy=0;" edge="1" parent="1" source="Ek2feBgdLIjCO6SRDVc8-4" target="Ek2feBgdLIjCO6SRDVc8-7">
          <mxGeometry relative="1" as="geometry" />
        </mxCell>
        <mxCell id="Ek2feBgdLIjCO6SRDVc8-12" style="edgeStyle=orthogonalEdgeStyle;rounded=0;orthogonalLoop=1;jettySize=auto;html=1;entryX=0.992;entryY=0.633;entryDx=0;entryDy=0;entryPerimeter=0;" edge="1" parent="1" source="Ek2feBgdLIjCO6SRDVc8-7" target="Ek2feBgdLIjCO6SRDVc8-5">
          <mxGeometry relative="1" as="geometry">
            <Array as="points">
              <mxPoint x="470" y="438" />
            </Array>
          </mxGeometry>
        </mxCell>
        <mxCell id="uVUi3xtWc0t7ueBPa2wP-6" style="edgeStyle=orthogonalEdgeStyle;rounded=0;orthogonalLoop=1;jettySize=auto;html=1;" edge="1" parent="1" source="Ek2feBgdLIjCO6SRDVc8-5" target="uVUi3xtWc0t7ueBPa2wP-1">
          <mxGeometry relative="1" as="geometry">
            <Array as="points">
              <mxPoint x="200" y="490" />
            </Array>
          </mxGeometry>
        </mxCell>
      </root>
    </mxGraphModel>
  </diagram>
  <diagram id="uWHhET3QDcBfe-rZ0gaT" name="Hasil Detail">
    <mxGraphModel grid="1" page="1" gridSize="10" guides="1" tooltips="1" connect="1" arrows="1" fold="1" pageScale="1" pageWidth="850" pageHeight="1100" math="0" shadow="0">
      <root>
        <mxCell id="0" />
        <mxCell id="1" parent="0" />
        <mxCell id="mHrugvdRDXKJechIfVCN-1" value="Pegawai" style="swimlane;whiteSpace=wrap" parent="1" vertex="1">
          <mxGeometry x="80" y="160" width="280" height="660" as="geometry" />
        </mxCell>
        <mxCell id="mHrugvdRDXKJechIfVCN-4" value="Klik Halaman Data Detail Tahapan" style="rounded=1;whiteSpace=wrap;html=1;" parent="mHrugvdRDXKJechIfVCN-1" vertex="1">
          <mxGeometry x="55" y="140" width="120" height="60" as="geometry" />
        </mxCell>
        <mxCell id="mHrugvdRDXKJechIfVCN-5" value="Upload Hasil tahapan" style="rounded=1;whiteSpace=wrap;html=1;" parent="mHrugvdRDXKJechIfVCN-1" vertex="1">
          <mxGeometry x="55" y="240" width="120" height="60" as="geometry" />
        </mxCell>
        <mxCell id="_zdEacxcrS7jKKIOit0V-1" value="Pegawai" style="swimlane;whiteSpace=wrap" parent="1" vertex="1">
          <mxGeometry x="80" y="160" width="280" height="660" as="geometry" />
        </mxCell>
        <mxCell id="_zdEacxcrS7jKKIOit0V-2" style="edgeStyle=orthogonalEdgeStyle;rounded=0;orthogonalLoop=1;jettySize=auto;html=1;" parent="_zdEacxcrS7jKKIOit0V-1" source="_zdEacxcrS7jKKIOit0V-3" target="_zdEacxcrS7jKKIOit0V-4" edge="1">
          <mxGeometry relative="1" as="geometry">
            <mxPoint x="115" y="130" as="targetPoint" />
          </mxGeometry>
        </mxCell>
        <mxCell id="_zdEacxcrS7jKKIOit0V-3" value="" style="ellipse;shape=startState;fillColor=#000000;strokeColor=#ff0000;" parent="_zdEacxcrS7jKKIOit0V-1" vertex="1">
          <mxGeometry x="100" y="40" width="30" height="30" as="geometry" />
        </mxCell>
        <mxCell id="_zdEacxcrS7jKKIOit0V-4" value="Klik Halaman Data Detail Tahapan" style="rounded=1;whiteSpace=wrap;html=1;" parent="_zdEacxcrS7jKKIOit0V-1" vertex="1">
          <mxGeometry x="55" y="140" width="120" height="60" as="geometry" />
        </mxCell>
        <mxCell id="_zdEacxcrS7jKKIOit0V-5" value="Upload Hasil Detail tahapan" style="rounded=1;whiteSpace=wrap;html=1;" parent="_zdEacxcrS7jKKIOit0V-1" vertex="1">
          <mxGeometry x="55" y="240" width="120" height="60" as="geometry" />
        </mxCell>
        <mxCell id="_zdEacxcrS7jKKIOit0V-6" value="Sistem" style="swimlane;whiteSpace=wrap" parent="1" vertex="1">
          <mxGeometry x="360" y="160" width="280" height="660" as="geometry" />
        </mxCell>
        <mxCell id="_zdEacxcrS7jKKIOit0V-7" value="Menampilkkan Data Detail Tahapan" style="rounded=1;whiteSpace=wrap;html=1;" parent="_zdEacxcrS7jKKIOit0V-6" vertex="1">
          <mxGeometry x="60" y="140" width="120" height="60" as="geometry" />
        </mxCell>
        <mxCell id="_zdEacxcrS7jKKIOit0V-8" value="Menamppilkan Data Terbaru" style="rounded=1;whiteSpace=wrap;html=1;" parent="_zdEacxcrS7jKKIOit0V-6" vertex="1">
          <mxGeometry x="70" y="470" width="120" height="60" as="geometry" />
        </mxCell>
        <mxCell id="_zdEacxcrS7jKKIOit0V-9" style="edgeStyle=orthogonalEdgeStyle;rounded=0;orthogonalLoop=1;jettySize=auto;html=1;entryX=1;entryY=0.5;entryDx=0;entryDy=0;" parent="_zdEacxcrS7jKKIOit0V-6" source="_zdEacxcrS7jKKIOit0V-13" target="_zdEacxcrS7jKKIOit0V-7" edge="1">
          <mxGeometry relative="1" as="geometry">
            <Array as="points">
              <mxPoint x="200" y="330" />
              <mxPoint x="200" y="170" />
            </Array>
          </mxGeometry>
        </mxCell>
        <mxCell id="_zdEacxcrS7jKKIOit0V-10" value="Data Salah" style="edgeLabel;html=1;align=center;verticalAlign=middle;resizable=0;points=[];" parent="_zdEacxcrS7jKKIOit0V-9" connectable="0" vertex="1">
          <mxGeometry x="-0.419" y="-1" relative="1" as="geometry">
            <mxPoint as="offset" />
          </mxGeometry>
        </mxCell>
        <mxCell id="_zdEacxcrS7jKKIOit0V-11" style="edgeStyle=orthogonalEdgeStyle;rounded=0;orthogonalLoop=1;jettySize=auto;html=1;" parent="_zdEacxcrS7jKKIOit0V-6" source="_zdEacxcrS7jKKIOit0V-13" target="_zdEacxcrS7jKKIOit0V-8" edge="1">
          <mxGeometry relative="1" as="geometry" />
        </mxCell>
        <mxCell id="_zdEacxcrS7jKKIOit0V-12" value="Data Benar" style="edgeLabel;html=1;align=center;verticalAlign=middle;resizable=0;points=[];" parent="_zdEacxcrS7jKKIOit0V-11" connectable="0" vertex="1">
          <mxGeometry y="2" relative="1" as="geometry">
            <mxPoint as="offset" />
          </mxGeometry>
        </mxCell>
        <mxCell id="_zdEacxcrS7jKKIOit0V-13" value="cek data" style="rhombus;whiteSpace=wrap;html=1;" parent="_zdEacxcrS7jKKIOit0V-6" vertex="1">
          <mxGeometry x="90" y="290" width="80" height="80" as="geometry" />
        </mxCell>
        <mxCell id="_zdEacxcrS7jKKIOit0V-14" value="" style="ellipse;html=1;shape=endState;fillColor=#000000;strokeColor=#ff0000;" parent="_zdEacxcrS7jKKIOit0V-6" vertex="1">
          <mxGeometry x="115" y="620" width="30" height="30" as="geometry" />
        </mxCell>
        <mxCell id="_zdEacxcrS7jKKIOit0V-15" style="edgeStyle=orthogonalEdgeStyle;rounded=0;orthogonalLoop=1;jettySize=auto;html=1;entryX=0.5;entryY=0;entryDx=0;entryDy=0;" parent="_zdEacxcrS7jKKIOit0V-6" source="_zdEacxcrS7jKKIOit0V-8" target="_zdEacxcrS7jKKIOit0V-14" edge="1">
          <mxGeometry relative="1" as="geometry" />
        </mxCell>
        <mxCell id="_zdEacxcrS7jKKIOit0V-16" style="edgeStyle=orthogonalEdgeStyle;rounded=0;orthogonalLoop=1;jettySize=auto;html=1;entryX=0;entryY=0.5;entryDx=0;entryDy=0;" parent="1" source="_zdEacxcrS7jKKIOit0V-4" target="_zdEacxcrS7jKKIOit0V-7" edge="1">
          <mxGeometry relative="1" as="geometry" />
        </mxCell>
        <mxCell id="_zdEacxcrS7jKKIOit0V-17" style="edgeStyle=orthogonalEdgeStyle;rounded=0;orthogonalLoop=1;jettySize=auto;html=1;entryX=0.992;entryY=0.633;entryDx=0;entryDy=0;entryPerimeter=0;" parent="1" source="_zdEacxcrS7jKKIOit0V-7" target="_zdEacxcrS7jKKIOit0V-5" edge="1">
          <mxGeometry relative="1" as="geometry">
            <Array as="points">
              <mxPoint x="470" y="438" />
            </Array>
          </mxGeometry>
        </mxCell>
        <mxCell id="_zdEacxcrS7jKKIOit0V-18" style="edgeStyle=orthogonalEdgeStyle;rounded=0;orthogonalLoop=1;jettySize=auto;html=1;" parent="1" source="_zdEacxcrS7jKKIOit0V-5" target="_zdEacxcrS7jKKIOit0V-13" edge="1">
          <mxGeometry relative="1" as="geometry">
            <Array as="points">
              <mxPoint x="200" y="490" />
            </Array>
          </mxGeometry>
        </mxCell>
      </root>
    </mxGraphModel>
  </diagram>
  <diagram id="wbuCG-GVsWhG4C8DnOHL" name="DFD">
    <mxGraphModel grid="1" page="1" gridSize="10" guides="1" tooltips="1" connect="1" arrows="1" fold="1" pageScale="1" pageWidth="850" pageHeight="1100" math="0" shadow="0">
      <root>
        <mxCell id="0" />
        <mxCell id="1" parent="0" />
        <mxCell id="ecKDal7eXsAj1tUPBZXS-1" value="&lt;font style=&quot;font-size: 24px;&quot;&gt;Admin&lt;/font&gt;" style="rounded=1;whiteSpace=wrap;html=1;" vertex="1" parent="1">
          <mxGeometry x="160" y="360" width="130" height="70" as="geometry" />
        </mxCell>
        <mxCell id="ecKDal7eXsAj1tUPBZXS-2" style="edgeStyle=orthogonalEdgeStyle;rounded=0;orthogonalLoop=1;jettySize=auto;html=1;entryX=0.5;entryY=0;entryDx=0;entryDy=0;" edge="1" parent="1" source="ecKDal7eXsAj1tUPBZXS-5" target="ecKDal7eXsAj1tUPBZXS-1">
          <mxGeometry relative="1" as="geometry">
            <Array as="points">
              <mxPoint x="590" y="220" />
              <mxPoint x="225" y="220" />
            </Array>
          </mxGeometry>
        </mxCell>
        <mxCell id="ecKDal7eXsAj1tUPBZXS-4" style="edgeStyle=orthogonalEdgeStyle;rounded=0;orthogonalLoop=1;jettySize=auto;html=1;" edge="1" parent="1" source="ecKDal7eXsAj1tUPBZXS-5" target="ecKDal7eXsAj1tUPBZXS-9">
          <mxGeometry relative="1" as="geometry">
            <Array as="points">
              <mxPoint x="640" y="220" />
              <mxPoint x="1045" y="220" />
            </Array>
          </mxGeometry>
        </mxCell>
        <mxCell id="ecKDal7eXsAj1tUPBZXS-5" value="&lt;h2&gt;&lt;p style=&quot;line-height: 150%;&quot; align=&quot;center&quot; class=&quot;MsoNormal&quot;&gt;&lt;b&gt;Sistem Penjualan Barang dan Jasa via Tender&lt;/b&gt;&lt;b&gt;&lt;span lang=&quot;EN-US&quot;&gt;&lt;/span&gt;&lt;/b&gt;&lt;/p&gt;&lt;/h2&gt;" style="ellipse;whiteSpace=wrap;html=1;" vertex="1" parent="1">
          <mxGeometry x="520" y="420" width="190" height="130" as="geometry" />
        </mxCell>
        <mxCell id="ecKDal7eXsAj1tUPBZXS-8" style="edgeStyle=orthogonalEdgeStyle;rounded=0;orthogonalLoop=1;jettySize=auto;html=1;" edge="1" parent="1" source="ecKDal7eXsAj1tUPBZXS-9" target="ecKDal7eXsAj1tUPBZXS-5">
          <mxGeometry relative="1" as="geometry">
            <Array as="points">
              <mxPoint x="1045" y="710" />
              <mxPoint x="640" y="710" />
            </Array>
          </mxGeometry>
        </mxCell>
        <mxCell id="ecKDal7eXsAj1tUPBZXS-9" value="&lt;font style=&quot;font-size: 24px;&quot;&gt;Pegawai&lt;/font&gt;" style="rounded=1;whiteSpace=wrap;html=1;" vertex="1" parent="1">
          <mxGeometry x="980" y="360" width="130" height="70" as="geometry" />
        </mxCell>
        <mxCell id="ecKDal7eXsAj1tUPBZXS-10" style="edgeStyle=orthogonalEdgeStyle;rounded=0;orthogonalLoop=1;jettySize=auto;html=1;" edge="1" parent="1" source="ecKDal7eXsAj1tUPBZXS-1" target="ecKDal7eXsAj1tUPBZXS-5">
          <mxGeometry relative="1" as="geometry">
            <Array as="points">
              <mxPoint x="225" y="710" />
              <mxPoint x="615" y="710" />
            </Array>
          </mxGeometry>
        </mxCell>
        <mxCell id="ecKDal7eXsAj1tUPBZXS-14" value="Data Pegawai&lt;br&gt;Data PO&lt;br&gt;Data Tahapan&lt;br&gt;Data Detail Tahapan&lt;br&gt;Data Vendor&lt;br&gt;Data Client" style="text;html=1;strokeColor=none;fillColor=none;align=left;verticalAlign=middle;whiteSpace=wrap;rounded=0;" vertex="1" parent="1">
          <mxGeometry x="355" y="270" width="140" height="40" as="geometry" />
        </mxCell>
        <mxCell id="ecKDal7eXsAj1tUPBZXS-16" value="Data PO&lt;br&gt;Data Tahapan&lt;br&gt;Data Detail Tahapan" style="text;html=1;strokeColor=none;fillColor=none;align=left;verticalAlign=middle;whiteSpace=wrap;rounded=0;" vertex="1" parent="1">
          <mxGeometry x="690" y="250" width="140" height="40" as="geometry" />
        </mxCell>
        <mxCell id="ecKDal7eXsAj1tUPBZXS-17" value="Login&lt;br&gt;Data Pegawai&lt;br&gt;Data PO&lt;br&gt;Data Tahapan&lt;br&gt;Data Detail Tahapan&lt;br&gt;Data Vendor&lt;br&gt;Data Client" style="text;html=1;strokeColor=none;fillColor=none;align=left;verticalAlign=middle;whiteSpace=wrap;rounded=0;" vertex="1" parent="1">
          <mxGeometry x="310" y="630" width="140" height="40" as="geometry" />
        </mxCell>
        <mxCell id="ecKDal7eXsAj1tUPBZXS-19" value="Login&lt;br&gt;Hasil Tahapan&lt;br&gt;Hasil Detail" style="text;html=1;strokeColor=none;fillColor=none;align=left;verticalAlign=middle;whiteSpace=wrap;rounded=0;" vertex="1" parent="1">
          <mxGeometry x="870" y="660" width="140" height="40" as="geometry" />
        </mxCell>
      </root>
    </mxGraphModel>
  </diagram>
  <diagram id="4ZVe1HVr0rYGl0fPiUnZ" name="Hirarki">
    <mxGraphModel grid="1" page="1" gridSize="10" guides="1" tooltips="1" connect="1" arrows="1" fold="1" pageScale="1" pageWidth="850" pageHeight="1100" math="0" shadow="0">
      <root>
        <mxCell id="0" />
        <mxCell id="1" parent="0" />
        <mxCell id="FEZ5mpPq77eTxVyMTQm9-1" value="&lt;p style=&quot;line-height: 150%;&quot; align=&quot;center&quot; class=&quot;MsoNormal&quot;&gt;&lt;b&gt;Sistem Penjualan Barang dan Jasa via Tender&lt;/b&gt;&lt;b&gt;&lt;span lang=&quot;EN-US&quot;&gt;&lt;/span&gt;&lt;/b&gt;&lt;/p&gt;" style="rounded=0;whiteSpace=wrap;html=1;" vertex="1" parent="1">
          <mxGeometry x="280" y="220" width="360" height="30" as="geometry" />
        </mxCell>
        <mxCell id="FEZ5mpPq77eTxVyMTQm9-5" value="Pegawai" style="rounded=0;whiteSpace=wrap;html=1;" vertex="1" parent="1">
          <mxGeometry x="193" y="280.42" width="120" height="30" as="geometry" />
        </mxCell>
        <mxCell id="FEZ5mpPq77eTxVyMTQm9-7" value="Input Data" style="rounded=0;whiteSpace=wrap;html=1;" vertex="1" parent="1">
          <mxGeometry x="260" y="355.42" width="120" height="30" as="geometry" />
        </mxCell>
        <mxCell id="FEZ5mpPq77eTxVyMTQm9-8" value="Update Data" style="rounded=0;whiteSpace=wrap;html=1;" vertex="1" parent="1">
          <mxGeometry x="260" y="410.42" width="120" height="30" as="geometry" />
        </mxCell>
        <mxCell id="FEZ5mpPq77eTxVyMTQm9-9" value="Delete Data" style="rounded=0;whiteSpace=wrap;html=1;" vertex="1" parent="1">
          <mxGeometry x="260" y="460.42" width="120" height="30" as="geometry" />
        </mxCell>
        <mxCell id="FEZ5mpPq77eTxVyMTQm9-10" value="Admin" style="rounded=0;whiteSpace=wrap;html=1;" vertex="1" parent="1">
          <mxGeometry x="640" y="290" width="120" height="30" as="geometry" />
        </mxCell>
        <mxCell id="FEZ5mpPq77eTxVyMTQm9-11" value="Input Data" style="rounded=0;whiteSpace=wrap;html=1;" vertex="1" parent="1">
          <mxGeometry x="550" y="360" width="120" height="30" as="geometry" />
        </mxCell>
        <mxCell id="FEZ5mpPq77eTxVyMTQm9-12" value="Update Data" style="rounded=0;whiteSpace=wrap;html=1;" vertex="1" parent="1">
          <mxGeometry x="550" y="415" width="120" height="30" as="geometry" />
        </mxCell>
        <mxCell id="FEZ5mpPq77eTxVyMTQm9-13" value="Delete Data" style="rounded=0;whiteSpace=wrap;html=1;" vertex="1" parent="1">
          <mxGeometry x="550" y="472" width="120" height="30" as="geometry" />
        </mxCell>
        <mxCell id="FEZ5mpPq77eTxVyMTQm9-17" value="" style="endArrow=none;html=1;rounded=0;exitX=0.5;exitY=1;exitDx=0;exitDy=0;entryX=0.999;entryY=0.61;entryDx=0;entryDy=0;entryPerimeter=0;" edge="1" parent="1" source="FEZ5mpPq77eTxVyMTQm9-10" target="FEZ5mpPq77eTxVyMTQm9-13">
          <mxGeometry width="50" height="50" relative="1" as="geometry">
            <mxPoint x="709.3399999999999" y="350" as="sourcePoint" />
            <mxPoint x="670" y="490" as="targetPoint" />
            <Array as="points">
              <mxPoint x="700" y="490" />
            </Array>
          </mxGeometry>
        </mxCell>
        <mxCell id="FEZ5mpPq77eTxVyMTQm9-20" value="" style="endArrow=none;html=1;rounded=0;exitX=1;exitY=0.5;exitDx=0;exitDy=0;" edge="1" parent="1" source="FEZ5mpPq77eTxVyMTQm9-12">
          <mxGeometry width="50" height="50" relative="1" as="geometry">
            <mxPoint x="620" y="460" as="sourcePoint" />
            <mxPoint x="700" y="430" as="targetPoint" />
          </mxGeometry>
        </mxCell>
        <mxCell id="FEZ5mpPq77eTxVyMTQm9-21" value="" style="endArrow=none;html=1;rounded=0;exitX=1;exitY=0.5;exitDx=0;exitDy=0;" edge="1" parent="1" source="FEZ5mpPq77eTxVyMTQm9-11">
          <mxGeometry width="50" height="50" relative="1" as="geometry">
            <mxPoint x="670" y="440" as="sourcePoint" />
            <mxPoint x="700" y="375" as="targetPoint" />
            <Array as="points" />
          </mxGeometry>
        </mxCell>
        <mxCell id="FEZ5mpPq77eTxVyMTQm9-22" value="" style="endArrow=none;html=1;rounded=0;entryX=0;entryY=0.5;entryDx=0;entryDy=0;exitX=0.492;exitY=-0.018;exitDx=0;exitDy=0;exitPerimeter=0;" edge="1" parent="1" source="FEZ5mpPq77eTxVyMTQm9-5" target="FEZ5mpPq77eTxVyMTQm9-1">
          <mxGeometry width="50" height="50" relative="1" as="geometry">
            <mxPoint x="253" y="280.4200000000001" as="sourcePoint" />
            <mxPoint x="252.08000000000015" y="240.00000000000003" as="targetPoint" />
            <Array as="points">
              <mxPoint x="252" y="235" />
            </Array>
          </mxGeometry>
        </mxCell>
        <mxCell id="FEZ5mpPq77eTxVyMTQm9-23" value="" style="endArrow=none;html=1;rounded=0;exitX=0;exitY=0.5;exitDx=0;exitDy=0;entryX=0.402;entryY=0.942;entryDx=0;entryDy=0;entryPerimeter=0;" edge="1" parent="1" source="FEZ5mpPq77eTxVyMTQm9-9" target="FEZ5mpPq77eTxVyMTQm9-5">
          <mxGeometry width="50" height="50" relative="1" as="geometry">
            <mxPoint x="243" y="490.78363636363633" as="sourcePoint" />
            <mxPoint x="240" y="320" as="targetPoint" />
            <Array as="points">
              <mxPoint x="240" y="475.41999999999996" />
            </Array>
          </mxGeometry>
        </mxCell>
        <mxCell id="FEZ5mpPq77eTxVyMTQm9-24" value="" style="endArrow=none;html=1;rounded=0;exitX=1;exitY=0.5;exitDx=0;exitDy=0;" edge="1" parent="1">
          <mxGeometry width="50" height="50" relative="1" as="geometry">
            <mxPoint x="240" y="425.19000000000005" as="sourcePoint" />
            <mxPoint x="260" y="425.46000000000004" as="targetPoint" />
          </mxGeometry>
        </mxCell>
        <mxCell id="FEZ5mpPq77eTxVyMTQm9-25" value="" style="endArrow=none;html=1;rounded=0;exitX=1;exitY=0.5;exitDx=0;exitDy=0;" edge="1" parent="1">
          <mxGeometry width="50" height="50" relative="1" as="geometry">
            <mxPoint x="240" y="370.19000000000005" as="sourcePoint" />
            <mxPoint x="260" y="370.46000000000004" as="targetPoint" />
          </mxGeometry>
        </mxCell>
        <mxCell id="FEZ5mpPq77eTxVyMTQm9-27" value="" style="endArrow=none;html=1;rounded=0;entryX=0.999;entryY=0.666;entryDx=0;entryDy=0;exitX=0.492;exitY=-0.018;exitDx=0;exitDy=0;exitPerimeter=0;entryPerimeter=0;" edge="1" parent="1" target="FEZ5mpPq77eTxVyMTQm9-1">
          <mxGeometry width="50" height="50" relative="1" as="geometry">
            <mxPoint x="699.8199999999999" y="289" as="sourcePoint" />
            <mxPoint x="699.8199999999999" y="250" as="targetPoint" />
            <Array as="points">
              <mxPoint x="700" y="240" />
            </Array>
          </mxGeometry>
        </mxCell>
      </root>
    </mxGraphModel>
  </diagram>
</mxfile>
